<?xml version="1.0" encoding="utf-8"?>
<!-- Generator: Adobe Illustrator 16.0.0, SVG Export Plug-In . SVG Version: 6.00 Build 0)  -->
<!DOCTYPE svg PUBLIC "-//W3C//DTD SVG 1.1//EN" "http://www.w3.org/Graphics/SVG/1.1/DTD/svg11.dtd">
<svg version="1.1" id="Layer_1" xmlns="http://www.w3.org/2000/svg" xmlns:xlink="http://www.w3.org/1999/xlink" x="0px" y="0px"
	 width="456px" height="383px" viewBox="9.5 -105 456 383" enable-background="new 9.5 -105 456 383" xml:space="preserve">
<g transform="translate(0,193) scale(0.011860,-0.011860)">
	<path fill="#080808" d="M33499.328,19261.953c-51.957-34.293-83.414-48.664-148.461-64.719
		c-45.699-10.91-104.984-25.277-133.641-30.754c-39.195-8.07-55.578-16.551-72.789-37.59
		c-11.609-14.449-39.523-66.203-60.355-112.973c-21.82-47.055-60.438-112.93-86.457-147.637
		c-26.184-34.707-62.332-93.828-79.625-130.426c-17.125-37.465-49.816-90.492-73.531-118.406
		c-38.453-46.234-41.992-56.488-44.461-122.195c-0.988-39.562-8.152-75.547-16.059-80.734c-7.902-5.188-32.689-9.551-55.748-8.359
		c-40.758,1.73-43.391,0.043-57.391-33.594c-8.562-18.855-16.715-50.805-17.621-70.812c-1.895-20.176-7.82-60.934-14.242-91.562
		c-6.508-30.633-35.242-94.941-66.121-146.566c-30.383-50.23-61.922-115.238-68.918-143.973
		c-7.578-29.934-25.035-77.938-39.031-107.414c-13.75-30.469-39.688-81.684-56.484-116.062
		c-17.129-33.43-39.031-100.125-47.184-147.719c-9.141-47.879-19.68-118.859-21.738-157.684
		c-3.293-39.07-16.383-107.617-29.559-152.371c-13.012-44.75-28.574-111.898-34.75-147.637c-5.926-36.641-7.16-79.418-2.797-95.844
		c5.105-19.309-0.578-45.574-15.645-78.473c-12.93-26.102-21.164-65.5-19.93-85.84c2.059-20.133,3.297-60.148,3.543-88.969
		c0.082-27.914-2.305-117.375-4.117-197.492c-1.812-80.078-4.527-164.438-6.836-187.781c-2.141-23.301-0.906-67.477,2.801-97.492
		c3.789-30.094,2.551-76.863-3.707-104.324c-5.27-27.254-10.621-65.871-12.68-86.004c-0.738-20.832-11.527-54.758-22.477-76.207
		c-11.859-21.613-19.105-45.289-18.527-51.34c0.906-7.039,17.867-68.672,37.051-138.086
		c32.363-115.648,34.668-136.688,32.938-244.633c-0.492-65.297-2.715-131.953-4.199-149.945c-2.801-17.25-8.48-46.688-15.316-63.895
		c-5.926-17.086-37.629-61.594-69.41-97.82c-43.23-48.461-63.402-81.684-73.039-120.383c-7.902-28.902-21.16-65.461-28.488-80.777
		c-8.398-15.645-34.336-50.434-58.629-76.332c-24.125-26.02-60.105-70.48-78.469-99.055c-18.281-28.613-53.77-79.172-77.07-112.188
		c-25.363-37.59-47.43-83.699-54.922-117.75c-6.258-31.617-15.316-60.809-20.176-66.16c-4.691-5.434-30.301-18.277-56.648-28.242
		c-25.113-10.746-54.016-26.555-63.402-34.172c-8.977-8.605-31.043-39.234-49.406-67.766
		c-17.867-30.508-65.543-81.148-107.949-117.047c-56.402-48.953-77.645-74.066-89.008-105.973
		c-7.492-22.605-15.316-63.98-16.387-92.141c-1.152-27.215,8.809-88.641,20.586-137.305
		c12.516-48.332,21.902-103.789,20.008-123.965c-1.977-20.129-13.832-50.145-27.008-66.98l-24.785-31.293l-55.91,27.75
		c-29.805,14.945-60.438,25.609-66.199,24.043c-6.836-1.77-27.832-12.434-47.512-23.754c-19.844-11.406-44.137-33.227-54.426-49.363
		c-10.293-15.191-39.441-46.562-65.875-67.891c-32.195-27.051-64.145-43.684-99.879-53.027c-28.984-7.535-66.449-22.52-84.48-32.402
		c-26.02-15.066-34.75-29.723-45.867-74.023c-7.41-30.797-22.312-64.719-32.688-76.742c-9.469-10.746-44.465-31.246-76.742-45.863
		c-32.359-14.699-74.023-41.172-92.305-58.297c-18.031-18.117-58.707-48.418-90.078-66.902
		c-46.77-26.719-64.887-32.523-99.965-32.402c-37.133-0.371-46.602-3.867-80.035-34.336
		c-26.512-24.535-72.953-48.992-157.023-83.453c-111.984-45.781-121.781-48.332-157.352-42.156
		c-20.914,4.859-43.973,6.051-52.699,3.789c-7.738-2.02-38.289-19.352-68.18-39.527c-30.137-19.227-65.871-52.406-79.211-72.418
		c-20.422-29.066-34.336-38.906-68.262-47.797c-29.969-7.781-50.801-7.082-66.695,2.18c-13.34,7.906-36.969,34.75-52.367,61.797
		c-15.977,25.773-38.535,64.309-49.074,85.348c-11.695,20.789-36.48,48.336-54.512,62.25
		c-18.855,12.641-50.309,26.145-69.496,28.324c-19.43,3.254-59.613-1.109-90.656-9.18c-48.418-12.68-67.766-24.992-142.531-91.027
		c-62.004-55.5-91.48-89.055-103.34-119.023c-8.398-22.891-35.406-61.965-59.613-87.898c-24.289-26.023-48.582-59.203-53.852-75.098
		c-5.598-17.992-3.293-50.473,7.574-96.215c8.73-37.012,20.176-104.324,25.445-148.418c5.352-44.094,16.305-117.664,25.195-163.941
		c12.27-66.039,12.023-97.078,1.07-146.484c-8.48-34.254-33.84-99.797-56.98-145.168c-27.664-52.656-50.637-118.609-62.988-178.68
		c-10.129-52.285-30.961-114.578-46.195-139.277c-14.078-25.363-52.449-83.949-83.164-132.324
		c-30.961-47.344-60.52-100.535-64.555-117.168c-6.258-27.422-12.352-32.074-54.84-43.23c-37.629-9.922-50.969-18.484-65.297-42.898
		c-9.961-17.086-24.617-32.238-33.184-34.543c-7.902-2.02-22.395,6.504-30.793,18.812c-9.469,12.023-27.586,65.176-41.172,117.379
		c-23.219,89.051-23.797,99.262-8.07,165.383c8.566,38.41,16.469,95.266,17.539,126.555c1.152,31.332,8.234,75.508,15.977,97.207
		c7.738,21.695,16.715,70.523,20.5,107.66c4.035,43.477,16.965,85.098,37.055,119.27c16.141,29.023,28.984,66.449,28.574,83.988
		c-1.32,17.168,6.586,41.992,16.961,53.973c10.047,13.012,28.488,33.309,41.746,46.113c13.176,12.719,35.902,55.906,52.203,96.336
		c18.941,50.395,25.527,88.312,22.398,120.59c-2.883,26.145,0.742,60.109,7.492,77.441c8.152,16.551,28.242,42.488,45.781,58.379
		c17.457,15.934,36.891,40.758,41.582,54.348c5.684,13.914,6.34,38.902,1.07,55.086c-3.953,15.438-29.395,53.312-54.922,83.82
		c-32.688,38-55.906,55.703-73.859,57.145c-20.832,0.781-40.18-8.398-82.094-42.117c-41.336-31.453-74.105-48.375-123.922-63.402
		c-45.207-12.844-78.965-30.012-100.867-49.074c-18.445-16.262-49.57-59.492-69.742-96.832
		c-21.164-37.547-42.57-97.988-49.242-135.863c-6.914-36.93-24.453-100.457-40.512-141.832
		c-15.48-43.352-44.547-94.402-68.508-121.328c-36.641-41.625-41.582-54.305-43.641-105.438c-0.82-32.32-8.234-87.941-17.371-123.43
		c-8.152-36.312-17.211-92.387-20.914-126.352c-3.379-33.965-14.328-79.215-25.281-100.703
		c-10.867-21.449-22.809-62.785-26.926-90.742c-3.785-28.941-18.359-72.004-31.371-97.121
		c-17.949-34.664-21.492-56.277-15.48-99.137c5.602-40.922,2.223-63.527-10.949-84.48c-10.211-16.141-26.188-69.949-35.82-119.973
		c-12.27-64.184-14.902-128.984-9.059-218.41c4.695-69.125,13.504-146.316,19.762-170.527c6.59-25.113,25.117-60.684,40.43-79.375
		c15.234-18.773,55.086-48.582,87.695-67.027c40.84-21.406,78.965-33.059,116.348-33.676c30.301-1.398,84.398,5.559,120.219,14.945
		c59.941,15.602,66.941,20.543,95.762,60.148c22.066,30.551,43.309,48.543,71.469,59.039c21.906,7.699,54.758,19.516,74.109,24.539
		c20.504,5.27,51.957,27.047,79.047,53.727c24.785,24.004,58.707,68.055,76.824,97.574c18.113,29.559,50.473,67.93,72.871,85.18
		c33.676,25.363,42.898,41.215,52.863,86.211c8.07,40.348,17.785,58.422,36.805,68.508c13.836,6.754,30.879,16.43,40.102,20.875
		c7.988,5.188,25.359,33.555,39.195,63.977c13.668,30.469,30.465,64.805,35.98,75.508c5.52,10.789,34.75,41.172,64.969,67.684
		c34.582,29.684,71.305,75.465,98.891,124.047c24.207,41.418,53.934,82.258,64.801,88.23c11.613,7.203,28.574,25.07,37.055,39.727
		c9.883,13.836,35.242,82.629,56.402,152.207c21.328,68.59,49.98,141.176,64.145,161.473c14.574,19.309,35.488,46.48,46.441,59.695
		c11.281,12.23,28.078,54.84,38.535,93.789c13.34,52.039,26.102,78.141,49.156,96.586c21.164,17.906,44.301,28.16,76.332,32.316
		c25.031,3.457,86.949,11.406,135.941,17.949c50.066,5.93,116.598,20.215,148.711,31.703c31.945,12.473,70.977,33.02,86.129,46.273
		c15.148,13.258,45.203,44.879,66.531,70.113c21.324,25.156,59.203,57.805,84.48,71.68c25.113,14.863,78.801,58.832,120.051,98.645
		c40.102,40.43,82.754,86.703,94.941,103.336c11.117,16.348,36.066,36.23,55.578,44.465c18.527,7.988,50.395,24.539,70.238,35.984
		c19.68,11.281,59.531,28.941,89.012,38.742c43.559,15.477,57.555,25.359,73.609,54.344c14.742,26.637,28.574,37.422,56.652,44.75
		c27.008,7.125,39.934,5.312,52.535-7.902c9.219-11.035,17.703-35.695,20.418-61.879c3.375-24.867-3.867-68.098-16.469-103.461
		c-13.336-35.531-23.547-99.223-25.195-156.449c-1.812-52.203-6.34-106.055-9.141-119.23c-2.965-12.184-13.75-45.984-24.617-75.754
		c-9.965-29.395-20.504-103.461-22.48-167.027c-2.387-61.715-1.316-125.445,2.469-139.938c3.789-14.535-0.656-44.629-9.469-66.574
		c-8.727-21.859-19.516-55.742-22.395-76.164c-3.211-23.551,4.199-79.539,20.75-150.641c14.324-62.418,23.879-127.055,21.82-143.109
		c-0.906-15.77,0.656-42.242,5.105-58.711c4.527-17.371,21.324-46.027,38.453-64.266c16.465-19.516,59.203-48.621,94.773-66.242
		c35.98-18.445,74.105-30.219,86.785-26.926c11.527,3.086,37.383,14.945,56.242,26.102c23.301,13.379,52.203,48.828,87.363,104.488
		c46.027,73.039,59.035,86.746,104.57,110.051c42.16,20.336,62.828,40.184,103.75,97.367
		c28.902,39.648,68.098,91.234,87.777,114.988c20.5,24.004,48.91,77.895,65.129,122.441c15.316,44.34,41.832,116.391,57.062,160.688
		c19.926,54.801,40.594,90.207,63.238,110.543c23.469,20.668,38.699,49.406,52.781,98.605
		c10.949,36.969,36.312,98.355,55.828,134.504c19.266,37.012,39.359,86.703,44.379,110.789
		c5.023,24.082,10.543,62.703,11.941,84.809c1.234,23.059,15.48,67.109,32.195,98.273c17.539,31.496,31.949,75.551,32.277,101.527
		c1.73,25.281,9.551,66.574,17.785,90.41c9.141,24.086,14.984,49.406,13.258,56.199c-1.812,6.832,7.328,35.035,19.926,62.004
		c12.598,27.09,21.324,64.555,18.938,85.633c-1.152,20.379-4.035,58.875-5.105,86.5c-1.234,32.77,6.012,60.477,22.562,87.566
		c12.926,21.988,25.691,60.441,27.996,86.953c1.398,26.184,11.691,66.078,22.066,89.422c9.801,22.191,21.492,56.281,25.281,73.777
		c3.293,18.445,6.008,48.09,4.938,67.48c-1.809,19.145,4.531,58.051,13.754,86.293c9.137,28.242,19.266,76.371,24.043,105.52
		c3.539,29.891,1.398,93.375-6.094,142.078c-10.047,69.742-8.812,96.875,4.609,128.328c8.812,21.863,33.598,53.273,53.441,68.754
		c20.668,15.727,45.285,47.965,54.922,70.156c10.457,23.465,39.109,68.094,62.742,100.207
		c27.668,36.109,44.215,68.305,43.723,85.758c-0.082,16.551,4.527,53.934,8.809,85.02c5.438,30.422,17.211,64.43,27.586,76.492
		c9.305,11.695,28.82,24.043,43.23,27.832c14.574,3.789,31.535,2.02,39.273-3.211c7.246-4.281,25.363-26.473,40.512-48.336
		c15.07-21.902,39.609-56.812,53.605-78.965c14.082-22.188,39.688-56.812,57.555-78.016c18.035-21.078,67.027-57.926,108.691-83.207
		c42.98-25.895,97.492-48.91,127.547-53.398c32.443-5.062,72.213-2.879,104.986,5.723c31.949,8.359,89.914,35.859,142.531,68.223
		c48.828,30.383,121.043,74.023,160.398,97.777c47.184,28.859,80.859,58.34,102.105,87.695
		c17.457,24.207,46.852,65.914,66.449,93.785c19.926,26.926,44.629,70.605,54.262,96.914c10.867,25.609,36.723,69.496,58.625,95.969
		c21.988,26.473,50.969,74.273,62.664,104.203c22.973,54.551,25.688,56.281,81.516,76.082c40.43,14.738,62.828,27.832,75.59,46.605
		c9.797,14.039,41.254,52.164,69.988,84.48c28.984,31.332,57.309,72.871,62.992,90.945c4.363,18.691,32.277,70.402,60.934,115.113
		c28.242,45.66,61.672,99.797,72.871,120.34c12.102,20.75,35.488,53.73,52.039,73.574c16.305,20.789,39.605,62.043,51.133,92.961
		c17.539,43.848,32.441,62.211,71.637,90c26.926,19.473,68.508,54.137,90.41,77.398c22.727,23.551,51.711,59.039,65.297,78.102
		c19.266,28.738,28.984,35.449,44.547,31.289c10.867-2.348,28.902-16.219,40.016-30.879c16.059-21.613,19.68-35.199,18.527-70.648
		c-0.988-24.043,3.789-77.562,10.293-118.238c5.434-40.965,8.48-103.258,5.023-138.211c-2.223-34.707,1.398-103.996,8.562-154.883
		c7.742-49.609,11.941-116.84,9.801-148.297c-3.047-31.863-2.883-84.48-1.484-117.172c1.566-33.715,2.059-122.48-0.66-198.688
		c-1.645-76.906,4.285-202.477,12.848-282.965c9.387-79.211,32.688-211.574,50.969-293.586
		c19.434-81.805,36.148-173.574,37.875-204.121c2.555-29.312,2.883-101.566,0.578-160.031
		c-1.566-57.266-0.164-141.625,3.129-186.297c3.375-44.586,6.34-150.27,5.023-236.398c-1.566-85.184,0-162.336,2.469-171.969
		c2.555-9.676,2.473-68.59-0.906-130.469c-3.539-61.879-3.703-132.281-1.152-157.438c3.293-24.949,28.242-136.273,55.664-248.996
		l50.227-203.961l-12.27-99.262c-6.258-55.414-7.738-132.32-2.387-176.457c5.68-41.828,8.48-100,8.895-128.902
		c-0.988-28.16,8.973-121.66,22.805-205.934c12.848-84.484,28.902-189.797,34.832-232.695
		c5.434-44.055,20.09-115.691,31.453-159.207c12.105-46.48,19.434-98.273,16.965-120.629c-2.391-22.316-2.637-88.602,0.41-147.723
		c4.527-96.008,10.211-122.438,55.25-270.816c33.02-106.137,53.852-193.707,60.688-247.684
		c6.996-58.172,5.926-101.855-3.789-139.566c-8.727-30.219-14-81.148-12.188-111.652c0.906-30.84,22.645-141.957,46.77-246.242
		c26.434-117.09,41.996-203.957,40.758-227.055c-1.973-20.133,3.297-95.309,12.848-167.191
		c9.223-70.98,37.219-221.746,60.766-335.539c23.223-112.809,57.227-278.562,75.508-367.902
		c21.738-106.918,33.266-197.988,34.914-267.852c0.82-58.668,9.879-156.574,19.512-217.094
		c9.883-61.508,19.352-133.391,21.574-161.758c3.129-27.133,5.848-89.547,6.094-137.961c1.234-48.293,8.977-148.543,15.973-223.227
		c8.316-75.383,20.422-169.254,27.996-209.766c8.398-40.223,15.895-112.559,17.375-160.852
		c2.059-48.004,9.551-131.828,17.703-186.586c8.07-54.672,28.984-170.277,46.441-256.57
		c17.375-86.461,35.078-197.621,37.957-248.508c3.789-49.734,17.785-134.957,31.621-188.148
		c12.926-53.52,41.992-136.684,64.883-184.523c21.82-48.008,48.172-109.434,58.379-136.605
		c11.859-29.066,36.973-65.953,63.074-91.07c24.785-23.547,65.051-51.297,90.246-60.105c25.031-9.059,72.129-15.316,103.75-13.422
		c31.371,2.223,76.496,12.02,99.879,21.078c26.102,10.949,53.934,34.828,75.672,62.25c18.527,24.371,45.863,50.227,60.355,58.051
		c14.492,7.984,48.25,36.395,75.508,63.238c26.758,27.664,56.977,58.215,66.859,68.094c10.867,10.047,21.492,36.727,24.125,57.887
		c3.625,21.656,26.184,70.07,50.477,107.289c24.371,37.465,54.262,96.914,66.777,132.238
		c12.434,35.324,23.551,87.859,25.445,116.184c0.656,29.23,1.891,63.652,1.562,77.07c-0.41,13.34-7.41,32.031-15.727,40.266
		c-7.41,8.398-21.902,12.766-31.617,10.293c-9.637-2.551-33.184-31.371-52.699-63.402c-19.598-31.867-54.016-74.023-75.918-93.211
		c-32.855-28.242-52.371-36.477-95.762-44.711c-47.43-8.234-61.512-5.68-91.648,14.328c-31.207,20.75-36.723,29.645-53.852,95.434
		c-10.457,39.688-37.215,114.371-59.695,165.258c-34.09,78.883-42.652,107.703-50.227,176.047
		c-5.52,45.039-8.73,136.191-8.07,201.484c0.574,111.82-2.305,130.758-46.277,303.223l-46.109,184.277l9.879,100.746
		c9.555,89.422,7.414,117.746-17.867,253.855c-15.727,83.699-34.09,193.582-40.676,242.535
		c-7.902,49.691-19.434,148.953-27.5,220.18c-7.66,72.418-25.691,192.801-39.359,268.801
		c-13.75,76.043-22.48,157.438-21.328,180.492c2.223,23.262,1.07,78.84-2.223,123.348c-3.539,44.668-7.988,125.117-9.469,178.512
		c-3.211,63.238-16.715,150.684-39.359,253.199c-24.621,110.379-34.336,174.977-32.523,218.945
		c1.316,34.5,0.906,95.391,0.082,134.379c-2.637,45.906-20.008,143.645-50.227,271.109
		c-33.02,138.207-48.418,220.961-49.242,271.395c-1.07,39.977-1.812,106.012-1.07,146.523c0.496,41.461-4.609,112.398-10.211,157.52
		c-5.844,46.027-16.469,130.016-22.395,188.438c-6.836,58.172-17.539,150.438-23.797,205.688
		c-6.176,55.211-22.645,169.785-36.395,254.02c-12.848,84.523-35.488,206.844-48.418,271.688
		c-16.219,78.344-22.645,134.586-19.184,168.551c4.035,27.953,2.223,66.734-2.637,85.098c-4.773,18.402-3.539,84.852,2.801,147.516
		c7.41,62.949,8.891,148.047,3.293,189.012c-4.527,41.172-10.211,114.164-12.434,162.129c-2.387,64.434-9.059,97.863-23.633,130.18
		c-12.68,24.664-22.559,66.531-26.102,99.676c-3.047,31.289-1.152,87.527,3.543,124.953c4.363,38.328,3.293,113.504-2.227,166.863
		c-6.996,54.016-19.184,140.762-28.57,192.059c-14.82,76.699-14.82,100.496-3.129,130.387c8.727,21.945,13.75,73.941,11.281,131.168
		c-2.801,81.891-8.977,113.426-41.828,215.406c-33.68,104.859-38.785,132.484-41.172,216.68
		c-0.578,53.52,1.316,109.801,5.188,126.391c2.965,16.266,3.129,62.828-1.152,103.094c-4.531,41.129-4.117,110.5,0.164,153.977
		c4.035,43.477,3.375,152.867-2.469,242.246c-4.777,89.75-9.059,188.891-9.141,220.922c0.082,31-3.953,70.316-7.988,85.758
		c-3.953,15.48-8.152,67.105-8.48,115.605c-1.234,48.293-6.34,134.832-10.211,193.625c-5.188,58.707-7.082,125.406-3.871,148.914
		c2.141,23.344-0.656,61.879-6.008,86.375c-6.836,26.062-6.918,58.09-0.332,80.445c6.258,19.227,8.234,54.922,6.176,79.172
		c-2.965,22.973-7.738,76.535-10.621,119.188c-3.789,57.969-19.844,131.254-64.637,291.117
		c-50.723,182.098-62.496,215.156-80.777,225.902c-11.527,8.359-39.031,14.617-62.004,15.852
		c-24.043,0.988-58.789-0.867-79.703-3.293c-20.258-2.184-48.336-5.355-62.414-7c-13.918-1.566-48.09-13.586-75.59-26.969
		c-27.422-13.379-65.379-34.664-83.66-47.715c-22.312-17.211-35.816-37.258-40.922-64.473
		c-5.684-22.191-17.539-52.164-27.336-66.039c-8.484-14.656-32.527-33.305-53.113-41.871c-19.594-8.148-41.91-25.359-50.062-37.832
		c-8.152-12.434-21.656-55.293-30.711-95.887c-12.598-59.039-21.738-79.047-45.781-97.781
		c-17.293-12.805-45.617-42.941-63.816-68.301c-23.715-32.07-47.512-51.75-79.789-66.367c-26.02-10.992-56.074-30.262-67.438-42.445
		c-11.031-13.219-26.266-37.836-33.922-56.406c-6.672-17.289-31.043-54.672-52.617-83.039
		c-22.727-27.625-67.684-93.129-100.371-146.074c-33.516-53.273-81.355-119.477-106.059-147.676
		c-25.934-27.461-71.965-92.266-102.184-142.531c-31.371-50.477-74.438-122.773-97.656-160.812
		c-22.973-38.125-51.297-87.898-62.496-112.52c-19.02-38.082-25.691-43.969-68.262-55.086
		c-26.184-6.793-65.543-22.234-88.188-34.418c-22.559-12.105-57.062-38.66-77.316-60.438
		c-20.008-21.863-55.086-49.613-78.391-62.992c-29.805-17.086-51.789-23.836-71.883-21.863c-19.02,1.238-35.324,12.434-48.91,32.73
		c-10.703,16.801-37.301,59.492-58.461,93.211c-21.574,34.668-43.066,81.723-49.652,106.922
		c-6.34,24.207-12.762,84.48-15.316,133.43c-1.809,54.305,2.801,108.281,12.848,136.688c7.902,24.91,30.629,69.043,49.238,96.629
		c17.293,28.363,41.336,74.93,52.203,104.613c9.883,29.477,33.352,73.859,52.781,98.562c18.691,23.426,47.922,77.645,64.969,119.309
		c24.867,59.164,44.051,87.984,88.762,130.719c34.09,31.617,62.91,68.094,68.922,88.309c5.352,18.941,5.598,49.98,0.246,70.32
		c-5.848,22.273-4.199,43.434,4.199,54.797c6.75,10.086,26.02,38.949,42.57,62.867c21.16,33.43,34.664,45.246,52.449,44.711
		c13.258,0.332,31.125,7.082,39.277,15.48c9.387,7.535,17.293,32.402,18.199,53.234c1.398,22.148,8.316,63.277,14.902,92.879
		c7.082,28.656,34.254,86.461,61.262,129.648c45.289,71.801,48.992,81.105,45.203,138.988c-3.043,39.523,1.238,70.609,12.188,87.941
		c8.812,13.75,38.867,41.172,65.875,60.684c28.898,19.93,57.227,50.023,67.352,70.281c9.305,20.008,15.316,40.223,14.082,45.039
		c-1.566,5.805,2.719,36.848,9.633,69.703c7,36.969,27.254,81.516,51.219,116.758c33.84,48.129,40.676,69.578,49.074,144.098
		c6.012,48.043,17.949,117.336,27.008,153.77c9.055,36.52,19.02,97,20.832,133.723c2.551,37.875,1.895,95.473-1.648,128.738
		c-4.281,40.184-0.738,70.074,11.445,90.824c9.059,16.797,24.621,79.828,33.68,140.062c10.293,59.613,33.016,154.43,51.543,209.887
		c19.68,55.703,35.406,117.746,37.383,137.918c1.895,20.133-5.926,101.855-16.301,180.738
		c-16.387,121.906-25.117,159.824-57.887,245.375c-30.383,80.902-52.203,120.715-112.312,204.207
		c-40.594,56.566-85.387,117.211-99.551,135.246c-13.914,18.074-38.949,38.41-54.18,45.781c-16.141,6.133-35.738,10.25-44.301,7.039
		C33572.035,19307.816,33535.477,19285.832,33499.328,19261.953z M33293.805,18684.211c12.598-4.984,38.863-26.02,57.969-47.883
		c20.832-24.539,34.418-48.871,35.98-66.121c0.824-15.273,4.777-65.914,7.824-113.672c4.199-47.469,14.82-131.496,23.219-187.199
		c15.152-93.254,14.656-107.828-8.809-203.879c-13.176-56.113-24.125-125.156-22.809-153.688
		c1.07-27.707-6.504-69.949-16.715-94.281c-10.375-23.465-19.762-74.559-19.844-113.754c-1.238-38.617-7-107.332-15.07-151.793
		c-7.082-44.219-20.504-103.629-29.809-130.801c-9.387-27.293-20.418-88.02-24.617-135.613c-4.363-46.688-7.328-86.707-7.082-87.695
		c0.246-0.945-22.48-24.453-50.395-52.449c-27.746-27.871-54.59-59.738-59.035-70.156c-3.297-11.195-7.246-31.906-6.426-47.18
		c-0.082-15.48-21.82-70.812-50.555-122.812c-27.586-52.656-63.98-134.543-80.531-182.262
		c-16.387-47.715-39.277-95.02-48.746-105.766c-9.633-10.828-28.406-26.062-42.98-33.02c-13.586-7.617-31.785-28.941-41.254-47.922
		c-8.562-18.773-18.773-62.785-22.066-97.82c-3.871-40.266-14.984-77.195-31.453-101.156c-13.012-21.039-35.82-40.469-48.336-43.723
		c-13.668-3.5-30.221,0.41-39.361,11.484c-9.715,9.84-18.277,34.422-20.5,58.668c-1.812,23.305-3.871,70.32-4.449,104.246
		c-0.738,33.965-8.809,101.074-20.09,147.801c-17.043,77.113-17.129,89.465,0,127.094c9.633,22.191,24.371,56.938,32.523,76.66
		c8.977,25.113,9.883,49.156,1.566,81.105c-6.508,25.195-10.129,62.496-6.918,81.887c2.883,20.379,3.375,65.996,0.082,102.352
		c-3.293,36.352-0.41,88.805,5.602,117.211c6.258,27.418,12.102,96.172,13.172,151.262c1.73,75.957,8.398,117.992,29.068,169.867
		c14.82,37.961,28.41,80.859,30.797,94.938c1.398,14.742-0.906,38.988-4.363,52.578c-3.789,14.531-2.883,38.492,2.797,52.449
		c4.695,13.629,23.141,38.043,40.676,53.973c29.645,25.32,33.102,35.574,36.891,116.102c2.883,67.973,9.551,97.656,28.242,125.281
		c14.246,20.297,33.02,59.246,43.066,87.734c10.375,27.504,31.371,70.238,45.863,93.621c14.574,23.508,35.406,66.121,45.535,94.57
		c10.207,28.531,37.215,87.281,58.543,132.156c22.398,44.094,46.77,81.52,53.688,83.246c6.75,1.77,18.773,15.234,27.254,29.891
		c7.656,14.449,10.785,38,7,52.449c-3.543,13.629-0.988,39.031,6.914,56.609c8.316,19.68,22.398,32.773,39.855,37.301
		C33259.223,18689.645,33282.031,18689.355,33293.805,18684.211z M31420.713,13315.832c9.715-21.203,16.715-59.738,17.125-85.469
		c0.25-24.703-7.328-58.75-15.395-75.262c-8.977-16.879-26.516-60.723-40.43-98.52c-12.93-37.422-24.293-89.012-23.715-114.699
		c0.574-25.691-0.328-62.043-0.578-80.695c-1.48-18.074-9.879-40.922-20.09-49.773c-13.914-14-21.242-13.793-40.512,0.781
		c-12.68,9.098-26.516,30.301-30.547,45.781c-4.367,16.426-1.812,54.305,4.281,85.883c6.586,30.629,17.785,66.652,23.797,79.582
		c6.832,13.172,15.395,47.469,18.195,76.125c2.965,28.613,11.773,66.078,19.598,83.656c8.895,17.785,18.527,59.613,21.738,94.527
		c3.539,34.09,8.727,69.535,12.762,77.77c4.531,10.543,10.293,12.023,21.984,6.793
		C31397.162,13358.32,31412.068,13337.363,31420.713,13315.832z"/>
	<path fill="#080808" d="M29374.459,18098.809c-19.762-15.48-55.66-36.273-80.773-47.02
		c-26.188-10.867-113.879-62.785-196.961-116.551c-82.422-52.535-172.422-111.16-198.441-130.43
		c-26.266-18.238-86.871-71.309-133.559-117.625c-46.77-46.355-110.5-103.297-142.449-127.176
		c-41.418-31.453-60.602-53.027-70.73-81.516c-6.832-21.41-19.184-49.445-26.02-62.578c-7-13.215-40.758-41.664-75.176-64.188
		c-47.016-29.887-72.379-55.086-106.633-106.422c-24.371-37.344-60.438-84.977-79.375-107.539
		c-19.188-21.531-57.062-58.34-83.988-81.93c-31.207-26.762-53.688-55.414-58.133-74.105c-4.609-17.785-13.176-44.754-19.352-59.863
		c-6.504-15.148-26.43-33.758-44.793-42.652c-22.148-10.047-50.723-43.312-89.75-99.055
		c-31.453-46.316-78.141-105.066-105.23-131.746c-26.105-26.555-57.145-69.742-69.004-95.68
		c-11.938-25.812-25.359-69.578-29.395-97.531c-5.848-36.684-18.855-61.797-48.418-95.352
		c-23.219-25.691-44.297-63.281-51.133-88.848c-6.094-24.332-24.457-68.426-41.5-98.645c-15.809-30.055-39.934-72.5-53.688-94.773
		c-12.844-21.902-62.66-100.086-110.746-173.617c-49.076-72.789-103.422-169.66-121.783-213.754
		c-18.197-45.082-36.807-104.699-40.594-133.598c-5.105-28.164-20.75-78.762-36.643-112.891
		c-16.221-33.184-46.193-95.844-69.084-139.031c-21.902-42.902-46.357-107.211-53.438-143.234
		c-8.152-36.148-31.455-97.078-51.547-135.41c-20.832-38.492-37.383-82.133-36.559-97.324c0-15.562-4.775-68.469-11.281-118.82
		c-5.764-48.949-16.303-99.383-21.82-110.09c-6.258-11.938-14.738-54.426-20.42-96.254c-5.518-41.746-21.984-113.219-37.053-158.547
		c-15.234-44.262-32.031-110.707-38.207-146.445c-6.094-35.734-19.268-80.406-29.973-98.809
		c-12.516-22.848-15.314-44.258-9.139-67.477c5.021-19.352,6.504-44.797,3.705-57.969c-3.787-13.34-16.221-44.547-30.055-70.895
		c-13.01-25.074-26.184-65.75-30.055-90.496c-4.117-23.879-2.059-74.969,3.871-113.672c5.764-37.832,7.822-81.68,4.693-97.035
		c-3.213-15.316-20.998-49.898-38.453-78.266c-17.621-27.379-43.23-63.98-57.639-80.199c-13.998-17.129-30.385-53.441-37.137-83.125
		c-5.928-28.406-8.068-75.465-4.775-104.574c4.117-31,0.576-65.008-8.316-82.75c-7.822-17.582-22.727-71.145-32.854-119.23
		c-10.129-48.129-29.809-134.957-42.818-192.102c-13.916-57.352-26.184-141.172-26.842-185.801
		c-0.084-43.395-3.541-97.082-6.506-117.461c-1.895-20.172-2.471-46.109,0.494-57.762c3.211-11.609-6.258-42.98-20.668-70.523
		c-18.609-35.82-30.549-88.602-42.488-193.09c-10.375-79.09-26.514-168.098-36.229-197.578
		c-11.363-31.906-29.561-61.426-45.041-72.746c-13.998-9.883-35.078-24.621-44.629-31.25c-10.375-7.863-22.645-35.859-27.914-63.156
		c-6.01-28.406-5.516-82.012,2.553-128.531c6.258-43.809,7.822-93.008,3.377-107.621c-5.436-14.863-24.621-44.672-42.736-65.957
		c-18.443-20.379-39.275-51.625-46.109-68.875c-7.246-19.477-8.398-70.445-2.883-139.238c5.518-64.762,4.693-116.637-2.305-129.852
		c-7.988-16.512-25.115-26.188-57.887-34.789c-45.533-11.898-46.77-11.199-65.955,22.066
		c-10.621,17.867-23.631,47.512-28.242,65.008c-4.775,18.363-25.031,60.602-46.357,94.281
		c-23.385,38.328-39.854,77.48-44.795,104.078c-2.799,22.973-8.893,85.469-13.256,138.086
		c-4.529,52.613-6.258,126.559-3.623,163.445c2.635,53.441-1.482,81.23-22.15,144.098c-13.914,41.789-39.936,113.547-58.873,158.219
		c-29.973,74.887-32.195,83.656-23.139,124.168c5.105,24.168,6.506,69.949,4.117,102.391c-3.375,33.266-3.869,102.391-1.729,153.566
		c3.047,86.621-1.234,111.324-47.676,313.059c-34.994,149.039-49.156,227.016-44.217,243.73
		c3.377,14.449,13.504,31.453,21.656,39.852c9.223,7.617,16.879,30.219,18.361,48.172c0.33,18.73-2.881,66.449-6.752,104.777
		c-4.035,39.234-4.775,113.426,0.248,165.383c4.199,54.879,1.564,124.457-6.258,165.832
		c-11.611,64.145-10.047,74.891,11.527,110.461c18.855,30.754,22.479,48.293,15.727,74.438
		c-5.105,19.309-9.963,65.668-11.609,103.418c-2.553,37.551,0,90.988,4.363,117.914c4.035,27.996,3.623,88.844-2.717,136.852
		c-8.646,64.844-6.67,108.77,5.928,175.098c17.293,84.109,16.715,98.438-10.045,275.43c-14.492,102.68-33.924,201.035-42.57,218.324
		c-7.74,17.621-25.361,37.836-38.865,45.699c-19.514,11.406-36.641,10.09-114.207-10.207
		c-49.238-12.887-103.09-32.195-119.723-43.727c-16.881-10.621-50.311-41.086-74.52-67.023c-24.125-25.98-55.25-65.09-68.424-86.129
		c-13.01-20.957-33.678-68.715-46.605-106.301c-11.939-37.18-23.139-101.074-23.055-141.297c-0.494-41.5-4.365-85.922-7.824-100.293
		c-2.551-14.121-12.598-42.57-19.926-62.086c-8.562-18.73-18.691-66.898-22.15-104.984c-4.445-38.371-4.445-109.719,0.166-159.082
		c5.188-71.102,2.881-97.531-13.34-130.715c-10.375-23.344-27.008-58.711-36.23-78.676c-11.197-24.664-14.82-70.031-12.516-145.91
		c4.447-91.891-0.164-122.027-22.809-185.844c-13.832-41.828-30.053-90.574-33.43-108.977
		c-4.775-17.785-20.008-57.969-34.418-89.629c-15.15-32.934-27.75-83.781-30.549-124.785
		c-2.471-37.836-14.244-91.605-25.525-119.355c-12.434-28.035-24.621-64.309-28.326-81.805c-3.951-16.508-7.74-49.527-8.811-72.582
		c-1.234-23.059-12.104-92.141-23.879-154.102c-11.445-62.949-18.361-143.273-16.551-182.055
		c3.541-44.59-1.975-90.535-14.82-128.949c-10.705-33.84-32.936-87.156-49.404-119.395c-16.305-32.191-32.195-74.516-34.172-94.73
		c-3.047-19.391-4.281-66.242-2.471-104.984c0.576-38.164,0.66-81.52-1.646-96.586c-1.234-14.82-18.279-48.211-35.57-73.406
		c-20.586-28.121-41.254-79.008-54.428-132.035c-11.281-47.43-33.924-111.203-50.805-141.461
		c-15.975-30.055-33.266-70.691-37.629-89.383c-4.283-18.773-20.916-62.414-35.736-96.215
		c-15.975-34.129-38.865-92.879-52.863-130.633c-12.928-37.426-30.795-79.336-39.936-92.141
		c-8.068-12.391-21.738-47.016-29.973-74.969c-8.316-27.996-28.078-81.766-45.533-118.324
		c-17.045-37.547-52.533-99.551-78.553-138.457c-26.268-37.793-51.053-85.676-55.416-104.367c-5.352-18.98-7.246-43.23-4.775-52.902
		c2.635-9.676,2.553-33.473-0.412-53.852c-3.541-25.734-17.621-47.02-46.029-73.039c-25.277-22.105-62.084-78.262-99.715-148.047
		c-32.689-61.219-60.438-117.047-62.496-124.871c-2.059-7.82-2.881-56.527-0.494-108.605c2.799-62.332-1.564-104.82-11.281-122.895
		c-8.398-15.605-32.854-44.754-54.592-63.898c-24.373-21.859-46.109-53.355-55.498-80.652
		c-8.811-25.031-31.617-60.973-51.297-80.609c-18.691-19.309-45.699-58.422-59.697-87.898
		c-13.01-29.273-27.338-53.688-32.113-54.883c-4.775-1.316-23.467,14.492-41.088,34.668c-31.207,36.27-31.949,39.152-40.018,133.266
		c-4.447,52.574-13.586,102.926-18.197,113.016c-5.764,9.879-14.656,52.039-19.68,95.145c-4.857,42.074-5.436,91.645-1.646,109.102
		c3.705,17.539,0.494,80.734-6.588,139.938c-7.164,59.039-29.725,180.328-49.734,269.09
		c-19.102,89.094-37.959,192.719-39.852,231.543c-2.635,45.781-15.234,105.559-36.479,171.27
		c-26.184,84.109-31.535,116.801-31.619,188.148c-0.328,48.496-8.562,135.203-17.867,194.777
		c-10.127,58.336-22.15,135.863-26.102,170.98c-3.787,34.172-3.047,82.918,1.893,107.043c5.354,23.055,7.74,77.398,5.682,121.246
		c-2.059,42.98-14.984,120.176-28.654,172.422c-13.586,52.203-27.666,133.352-31.701,180.863
		c-4.281,47.469-12.434,106.301-18.691,130.426c-6.422,24.293-10.375,83.164-8.316,131.168c1.812,48.09-5.27,146.527-14.82,218.453
		c-12.682,95.926-14.164,149.16-5.518,203.176c6.094,39.852,10.869,108.32,10.045,151.465c-0.082,47.512-5.516,91.605-14.82,111.859
		c-10.705,25.199-12.846,56.652-7.986,113.754c4.033,43.438,7.162,130.059,8.562,192.391c0.082,63.031,2.635,175.426,5.846,250.605
		c2.965,94.938,0.248,144.836-9.057,165.094c-9.059,18.32-12.352,58.832-10.539,115.07c1.975,48.004,4.527,112.848,4.445,144.879
		c1.234,31.328,8.234,75.508,16.881,97.449c8.811,21.902,20.502,64.227,26.266,93.621c5.518,30.383,6.752,96.918,2.307,149.449
		c-6.67,76.824-4.365,107.414,11.609,152.949c13.916,37.711,19.35,80.488,16.715,122.191
		c-2.141,35.574-15.891,100.211-31.125,146.855c-15.314,46.648-35.736,93.004-46.111,104.863
		c-9.963,10.785-40.018,34.871-66.777,53.809c-26.596,18.898-76.166,42.078-109.926,52.902
		c-58.215,16.883-63.32,16.551-95.268-3.211c-18.527-12.062-59.697-44.629-92.633-72.789
		c-31.785-29.023-67.027-64.059-76.496-78.922c-9.881-13.957-26.102-54.387-36.889-88.23
		c-11.773-34.086-30.465-81.352-42.816-105.23c-13.752-26.348-24.621-75.711-27.75-127.176
		c-3.129-47.305-11.609-93.992-19.596-106.426c-11.035-17.414-9.881-33.555,4.775-89.711c14.82-52.945,20.42-121.738,22.891-285.473
		c2.059-118.285,2.799-255.547,1.07-304.582c-0.658-48.828-2.553-131.949-3.211-184.895c-0.658-52.863-5.105-110.871-8.893-128.41
		c-4.447-18.734-2.965-67.934,2.881-109.844c6.094-42.859,20.256-140.434,30.055-217.504c15.15-109.676,16.797-147.43,6.506-179.172
		c-7.74-21.699-17.045-89.133-20.75-150.066c-3.623-60.934-4.611-160.359-0.824-222.445c2.635-61.344,7.822-132.402,9.305-157.805
		c2.471-25.195,9.717-68.797,16.963-96.793c7.41-32.234,24.949-67.93,45.451-94.648l32.689-42.078l-6.176-55.375
		c-4.363-31.082-7.164-75.258-6.422-97.82c-0.248-22.809,2.223-75.875,4.857-117.582c1.646-41.953,4.117-110.543,2.883-153.32
		c-0.166-42.402,7.246-106.59,16.551-142.406c14.656-56.117,14.326-70.691-0.412-101.402c-11.857-25.734-14.41-55.457-9.059-103.629
		c3.871-38.285,23.551-133.391,44.547-213.672c20.668-79.336,52.369-180.656,70.072-224.625
		c21.08-53.359,33.842-101.734,38.865-144.797c4.281-36.109,26.02-138.992,49.734-229.938
		c23.631-89.957,51.379-220.141,61.096-288.895c17.127-109.266,17.127-132.074,2.389-175.098
		c-17.209-48.992-16.633-50.887,22.891-210.133c21.984-88.227,63.732-259.293,93.127-379.758
		c29.396-120.504,57.803-248.461,63.238-285.27c5.434-45.039,17.291-82.297,34.172-115.07
		c14.162-26.309,39.275-63.195,55.414-81.684c16.305-18.484,46.359-46.727,66.861-62.082c24.455-18.445,51.135-29.027,75.754-28.738
		c20.586,0.207,61.18,3.539,90.246,7.039c28.982,3.418,64.719,12.723,80.281,20.996c20.914,10.582,34.09,31.621,52.039,81.809
		c12.764,37.465,37.383,82.094,53.193,100.66c17.373,20.133,52.863,42.777,86.293,56.734c44.053,17.703,63.814,33.223,88.846,67.684
		c18.527,24.414,45.781,82.258,61.508,128.699c15.811,46.523,25.609,95.598,22.068,109.184c-3.459,13.504-2.635,41.664,2.223,62.578
		c4.035,20.625,28.242,85.922,53.604,143.191c26.598,60.684,60.934,169.953,80.859,255.793
		c31.619,136.395,39.193,154.922,76.824,196.793c23.221,25.691,48.416,60.234,56.65,75.754
		c8.316,15.688,18.609,51.422,23.631,79.664c6.176,35.652,3.953,59.902-6.916,81.848c-7.822,17.621-13.916,49.117-12.186,70.277
		c1.234,23.016,12.104,48.582,28.406,65.297c13.834,13.957,34.914,28.738,46.523,31.785c11.445,3.004,43.887,21.777,71.801,41.457
		c28.16,18.773,60.686,52.121,72.871,72.832c15.152,25.648,22.975,62.867,24.539,115.977c2.469,69.906,7.574,85.758,48.086,152.082
		c25.525,40.758,48.334,84.027,50.475,95.926c2.883,12.105,2.553,45.125-0.41,72.254c-3.789,34.172,0.246,62.086,13.586,86.254
		c10.293,20.215,21.902,47.016,24.619,60.109c2.553,14.16,31.455,53.77,63.484,89.051c46.275,52.367,63.486,81.602,86.787,150.809
		c16.469,47.676,43.641,113.754,61.346,145.164c19.926,38.371,31.535,76.539,31.453,108.566
		c0.576,33.227,11.445,67.027,31.371,101.281c16.469,28.035,38.043,84.234,49.076,124.418c10.375,39.852,17.045,77.812,15.15,84.605
		c-1.4,5.762,4.775,65.254,14.08,131.828c10.705,74.105,25.855,134.871,39.854,160.234c13.092,20.996,31.619,41.336,42.158,44.133
		c12.598,3.254,22.314-2.469,29.314-17.168c6.174-11.816,10.457-43.805,9.387-71.883c0.082-27.953,1.48-76.207,3.293-106.754
		c1.729-30.508,12.764-80.367,23.631-110.586c16.799-44.176,20.668-79.293,20.092-175.551
		c-0.494-117.004,0.658-124.949,40.182-244.84c22.893-67.438,49.816-162.664,61.51-211.328
		c11.445-47.676,40.842-164.023,66.037-256.613c24.291-92.922,76.248-283.996,115.195-424.715
		c37.877-140.969,82.258-298.898,98.396-352.543c27.174-88.062,33.596-100.824,83.824-158.957
		c29.559-33.68,72.459-75.18,93.949-90.246c37.219-27.422,43.477-27.875,94.775-14.41c30.137,6.832,67.52,10.375,83,6.133
		c15.645-4.117,45.205-2.594,66.777,1.977c33.842,8.895,42.076,17.168,73.695,74.023c18.691,34.871,66.119,98.977,104.656,141.133
		c37.465,42.777,76.988,93.375,86.787,114.66c9.305,20.008,24.125,66.16,31.947,103.379c6.916,36.973,29.148,105.852,47.84,153.156
		c19.598,47.508,42.818,101.07,51.793,117.91c10.293,20.258,15.232,56.734,13.586,98.645c-2.799,45.781,5.436,97.574,26.596,167.109
		c20.256,68.387,28.408,120.137,25.855,161.883c-2.717,41.664,3.953,83.699,20.256,128.289
		c13.174,36.477,32.277,90.039,43.064,119.723c10.869,29.727,27.996,82.793,39.193,118.816
		c11.281,35.984,22.314,96.75,24.703,134.629c2.305,38.863,13.34,99.633,23.631,135.41c10.953,36.93,28.49,104.57,37.877,151.465
		c10.459,47.18,30.221,121.578,45.205,166.863c14.246,45.082,29.561,100.746,33.678,124.5c3.871,24.824,16.551,59.16,28.408,76.781
		c13.834,19.062,22.066,50.188,20.914,78.844c-0.412,28.816,10.541,69.906,27.666,103.297
		c14.74,30.793,35.736,100.371,46.359,154.758c9.633,54.262,18.691,110.336,19.02,124.91c0.248,14.574,9.799,65.543,21.82,114.207
		c12.188,48.707,21.41,107.949,21.656,130.758c-0.082,27.914,12.188,64.102,31.865,99.344
		c18.609,31.703,38.207,87.445,45.041,128.492c6.752,41.047,12.104,135.453,12.021,210.875
		c-0.412,76.457,1.236,149.164,5.27,161.637c2.801,13.133,15.316,44.301,27.338,69.168c18.609,35.859,21.574,52.121,12.68,86.004
		c-5.764,22.273-10.457,56.156-10.127,74.887c0.164,18.609,11.445,54.676,24.291,80.738c13.256,28.281,24.373,76.699,26.596,119.598
		c2.141,38.867,12.352,95.227,24.125,125.199c13.834,37.715,18.773,74.148,14.74,125.777c-5.93,65.668-2.719,76.863,28.406,128.367
		c24.539,40.555,40.266,86.996,54.262,164.066c10.543,58.586,34.586,144.508,52.699,189.465
		c19.188,45.41,36.23,106.715,39.195,135.328c1.48,29.395,12.105,83.906,21.574,122.523c9.551,38.699,35.98,107.535,57.801,154.637
		c21.82,47.059,43.066,100.168,45.535,118.363c2.305,19.188,22.727,55.5,44.465,82.879c35.16,43.309,39.113,55.785,41.828,120.504
		c1.895,52.203,8.398,78.719,23.551,96.09c12.188,12.477,43.723,62.047,71.555,109.68c26.926,47.387,63.238,102.352,78.633,121.824
		c16.965,18.898,42.242,67.93,57.395,109.102c22.23,57.473,38.371,82.383,73.941,112.312c25.523,21.203,49.816,38.906,54.59,40.184
		c3.953,1.07,16.141,17.66,26.844,35.98c10.707,18.199,17.785,38.703,16.551,43.559c-1.645,5.766,2.883,20.34,11.281,31.906
		c7.41,11.242,29.891,35.777,50.062,53.359c27.668,24.824,39.195,44.34,46.688,82.504c6.094,35.777,17.293,56.199,38.043,71.965
		c15.645,11.363,47.676,50.723,70.402,86.625c22.641,35.941,67.848,88.023,98.559,116.758
		c31.207,27.707,88.27,93.418,127.465,144.961c39.605,50.641,81.27,116.348,92.469,145.043
		c12.105,29.027,30.879,59.738,41.664,69.828c11.035,9.098,42.652,30.793,69.578,46.109c27.914,15.645,73.035,49.074,99.633,73.613
		c27.586,24.824,89.75,71.965,138.168,104.324c48.004,33.227,114.699,75.426,147.145,93.25
		c32.359,18.777,84.809,51.094,116.594,71.844c54.676,35.984,61.508,37.754,92.305,30.344c22.891-4.363,48.828-24.457,77.977-57.188
		c23.633-26.926,62.578-56.98,84.727-66.652c23.141-9.555,51.793-27.914,62.25-40.594c11.609-12.477,43.066-53.895,69.91-93.457
		c26.512-38.496,60.355-80.285,74.68-92.059c14.742-12.68,39.938-38.125,56.406-57.598c17.457-19.227,44.875-64.762,61.098-102.883
		c15.891-37.219,37.875-77.938,48.168-89.754c11.363-11.566,36.312-31.824,57.309-44.957c32.195-20.504,40.43-31.867,51.215-73.367
		c7.082-27.129,16.633-94.98,21.82-150.438c7.906-85.797,13.918-113.176,40.926-176.414c18.113-41.746,41.91-113.012,54.098-159.492
		c12.598-48.418,19.926-100.211,17.785-123.473c-2.551-22.395,0.41-69.164,7.656-104.488c6.258-35.613,8.566-115.609,4.531-179.668
		c-3.211-62.828-5.766-159.699-6.094-213.551c0.574-53.562,2.387-116.145,4.117-138.375c2.715-22.109-0.988-134.668-7.906-250.234
		c-6.422-114.246-9.797-243.316-7.984-286.215c2.715-49.98-2.555-100.992-16.801-149.203
		c-11.195-40.059-20.582-91.109-20.832-113.918c-0.164-22.809,7-86.047,15.07-140.762c8.152-58.875,10.703-111.984,4.855-129.027
		c-4.938-16.758-17.703-51.051-26.676-76.168c-8.977-25.031-20.34-92.18-25.031-149.199
		c-3.543-57.723-11.777-129.113-15.977-160.277c-8.316-54.879-7.902-56.773,19.352-90c18.691-24.082,28.902-47.223,32.441-76.289
		c2.883-23.012-0.906-56.031-7.984-72.375c-7.082-16.344-22.07-65.711-32.609-108.73c-11.691-42.367-21.738-102.887-23.301-132.199
		c-2.223-30.59-13.668-82.137-25.691-115.277c-11.199-31.906-24.125-101.363-26.844-153.812
		c-3.211-51.465-2.801-104.078,0.414-116.676c3.293-12.52,18.195-30.387,34.336-40.637c16.137-10.211,44.051-21.574,60.848-26.434
		c24.043-5.145,36.809-2.797,59.617,12.477c16.219,9.344,39.688,38.246,53.684,63.648c14.328,24.375,27.008,54.594,30.137,66.738
		c2.141,11.938,1.234,46.852-2.305,75.918c-4.859,42.199-1.152,63.812,14.328,91.605c12.434,19.762,28.078,54.84,34.828,76.328
		c7.41,22.602,17.293,84.07,20.75,137.676c3.625,53.727,14.988,124.867,25.527,159.699c9.551,34.5,17.457,87.238,16.219,115.812
		c-1.316,28.613,10.293,111.242,25.773,182.469c26.926,121.781,27.504,135.324,12.188,205.809
		c-9.883,41.871-14.41,87.16-11.609,100.293c3.703,13.34,25.359,44.914,47.84,69.41c23.301,25.691,48.992,58.219,56.98,74.809
		c8.316,15.562,17.949,46.027,21.656,67.645c2.305,22.312,0.82,56.074-3.953,74.434c-5.105,19.391-6.59,44.793-4.449,56.652
		c3.297,11.238,16.551,31.289,30.797,44.258c16.715,14.738,28.574,40.594,33.594,72.914c7.332,43.27,3.953,68.176-26.102,175.055
		c-21.984,80.078-31.043,130.43-26.43,139.938c3.953,9.223,22.727,20.34,41.086,25.156c29.066,7.574,33.516,13.996,38.125,48.211
		c3.543,21.613,3.047,94.855-0.082,162.254c-3.375,68.383-2.141,150.352,2.883,182.629c5.023,32.402,4.941,103.668-0.988,157.973
		c-6.504,64.391-5.602,120.465,3.375,161.059c7.41,35.035,13.75,89.465,14.988,120.754c0.328,30.055-8.402,111.445-19.105,179.953
		c-11.773,68.262-20.668,153.812-20.008,191.195c0.574,37.301,1.645,100.664,2.551,140.188c1.73,40.758-2.223,111.035-8.234,158.094
		c-6.75,45.742-19.184,112.766-28.57,148.586c-11.445,43.516-26.266,76.863-47.18,101.359
		c-18.363,23.098-35.902,58.832-44.547,91.727c-7.906,29.973-17.457,94.652-21.246,144.305
		c-5.27,59.574-15.809,115.73-33.102,166.039c-13.914,41.828-47.758,115.648-74.27,165.59
		c-26.598,49.938-59.699,98.066-75.18,109.512c-15.148,10.539-40.426,35.984-57.059,56.445
		c-16.469,19.43-44.547,44.133-62.91,54.879c-19.102,9.469-80.035,36.93-137.508,59.164
		c-56.734,23.383-123.184,44.215-146.98,48.332c-29.23,4.777-57.969,20.008-87.855,47.348
		c-24.129,21.531-60.273,45.246-80.613,51.254c-19.926,5.188-47.18,10.418-59.695,11.242c-13.422-0.414-40.68-10.582-59.121-22.727
		c-29.316-18.938-42.734-22.52-74.602-19.434c-21.078,1.688-43.148,3.129-49.488,3.625
		C29413.572,18126.637,29393.15,18114,29374.459,18098.809z"/>
	<path fill="#080808" d="M1153.863,8218.359c-19.185-17.336-40.717-45.699-48.787-62.293c-6.834-17.332-20.091-53.809-30.137-82.301
		c-9.181-28.324-16.633-55.004-15.151-60.848c1.276-4.777-7.617-61.922-19.803-126.066c-18.074-96.75-19.886-137.59-10.828-235.41
		c5.929-65.625,10.869-171.762,10.128-235.988c0.247-64.145-5.311-142.121-11.486-173.742c-7.411-30.875-9.017-83.82-4.529-116.84
		c4.405-32.855,24.661-106.219,43.929-164.188c22.521-66.449,42.364-146.074,54.057-218.449
		c10.087-62.582,16.345-130.016,13.422-150.602c-3.252-26.598,3.788-62.004,27.419-132.406
		c17.085-53.191,31.578-116.676,33.101-142.285c1.441-25.359,2.017-118.074,1.194-206.344c-0.7-87.941-3.952-174.727-7.411-193.09
		c-3.829-20.668,4.282-79.461,21.285-156.695c24.579-109.266,26.802-137.676,19.597-232.613
		c-3.994-60.027-7.617-129.109-7.082-154.801c1.441-25.443,12.269-106.467,26.39-180.244
		c17.292-93.621,24.332-159.988,21.532-216.639c-2.47-46.027-3.705-112.561-2.388-149.449c1.029-43.229,13.668-115.275,35.942-200.5
		c30.342-115.936,33.307-138.908,23.343-164.27c-5.887-17.045-10.292-63.73-8.81-104.736c1.194-39.936,9.716-135.945,18.279-212.193
		c8.563-76.412,22.644-165.752,31.249-198.523c8.852-33.924,25.608-78.225,38.494-99.715c20.915-36.889,21.203-41.83,3.953-82.588
		c-15.356-35.9-15.151-56.65-2.223-133.805c7.822-49.732,24.867-146.566,36.518-214.826
		c12.681-67.932,24.949-154.719,28.984-193.996c3.829-38.287,8.852-101.031,10.787-139.896
		c3.417-52.781,17.415-114.289,61.714-263.82c39.524-135.451,61.92-228.908,73.448-308.531
		c9.181-62.744,14.245-129.521,11.322-150.025c-3.17-19.432-0.329-85.881,5.682-148.377c8.275-90.904,21.038-147.473,63.855-299.393
		c51.133-175.879,54.221-191.607,49.322-255.914c-4.035-55.91,1.523-100.951,31.701-239.859
		c25.485-121.535,34.913-185.268,31.455-219.109c-2.429-26.514,3.788-105.479,14.245-177.197
		c11.199-70.484,28.49-164.188,39.565-206.758c11.157-42.488,37.712-163.693,58.956-268.678
		c21.285-105.15,39.318-210.053,40.1-232.449c-0.247-22.891,2.553-85.223,5.105-138.332c3.541-52.781,11.487-118.982,18.28-145.084
		c7.164-27.008,20.338-105.314,29.725-172.998c9.593-76.084,25.402-148.543,39.647-187.162
		c21.944-60.52,22.767-67.438,5.641-163.857c-10.293-55.416-14.739-121.783-11.322-146.648c5.97-30.467,18.115-57.311,38.536-84.07
		c17.003-21.41,47.346-50.393,67.643-64.967c20.379-14.328,53.027-40.924,73.407-59.287c20.833-20.42,44.752-32.771,54.386-30.137
		c9.634,2.471,26.514,21.244,38.659,41.994c10.869,21.41,39.688,53.77,62.661,72.131c23.838,19.844,49.94,50.393,60.686,68.59
		c9.469,19.104,28.696,64.391,44.052,100.539c15.15,36.971,44.958,85.141,66.778,108.277c22.026,22.396,46.77,61.92,55.827,86.953
		c9.881,25.525,24.25,65.295,34.707,88.846c9.222,24.043,32.525,80.775,52.04,125.074c25.279,57.393,36.189,102.434,38.536,152.826
		c2.676,49.156,10.992,84.48,27.625,111.488c14.328,24.455,27.502,69.166,32.319,113.877c3.953,40.266,11.898,88.93,18.239,108.197
		c5.352,19.02,9.304,59.367,7.781,88.846c-1.771,30.631,1.646,72.789,7.452,93.951c5.64,22.23,20.091,53.768,31.042,71.059
		c11.98,17.705,21.285,48.994,22.973,70.238c0.741,20.75,12.146,68.26,24.373,104.49c13.257,36.477,28.943,78.883,37.054,95.68
		c7.657,18.279,9.058,55.992,4.199,102.186c-4.528,41.252-6.381,84.152-3.417,96.256c3.006,12.352,17.621,31.455,33.266,42.9
		c15.356,12.268,31.413,29.889,36.889,40.512c4.693,9.633,6.423,38.947,4.899,64.307c-2.018,31.701,5.353,62.498,20.132,93.375
		c13.093,24.949,30.426,81.271,38.659,124.664c10.293,55.498,23.468,91.975,45.699,121.535
		c26.144,34.748,32.483,53.934,34.213,114.371c1.194,46.77,15.645,110.584,39.564,180.904
		c20.503,60.107,37.754,128.697,37.136,154.389c-0.205,24.867,7.123,55.662,18.156,68.836c10.087,13.01,21.45,40.76,26.267,61.592
		c4.94,20.996,21.45,64.555,38.083,95.68c16.386,32.359,40.059,107.867,52.039,168.717c16.551,82.918,33.472,128.699,62.867,178.762
		c22.314,36.807,46.976,93.045,55.58,123.182c9.429,31.289,13.916,65.627,10.828,77.072c-2.759,10.703,5.435,42.898,17.95,69.988
		c12.516,26.926,20.462,60.109,16.921,73.613c-3.54,13.422,2.471,37.877,15.192,56.568c11.651,18.609,32.154,46.688,45.411,63.566
		c13.092,16.963,37.012,67.52,54.263,112.561c16.015,45.287,40.923,124.252,54.098,176.375
		c15.48,55.744,41.459,122.357,66.984,163.199c30.96,51.463,41.829,81.27,42.776,120.793c0.699,28.984,6.875,60.686,13.874,69.742
		c6.917,9.141,20.626,39.525,30.754,67.932c10.169,28.49,23.18,57.805,29.643,64.557c6.464,6.998,24.95,31.371,40.43,55.086
		c21.45,32.441,29.561,64.555,36.354,137.756c7.123,83.494,13.422,102.678,46.152,151.506c21.038,30.303,41.129,56.24,43.97,57.062
		c3.911,1.07,20.256,33.184,36.147,71.309c19.351,48.58,26.679,83.492,23.509,115.854c-4.652,41.088,2.265,58.461,60.809,158.506
		c65.091,110.994,66.243,114.453,63.443,188.066c-1.317,41.088,0.576,84.893,3.335,98.15c2.8,13.092,12.393,39.441,20.956,58.215
		c9.263,19.926,42.775,81.436,75.424,138.496c50.228,88.6,58.709,111.49,59.862,162.541c1.111,50.805,6.052,63.402,34.171,90.41
		c18.321,17.127,33.06,39.607,33.06,48.006c-0.411,9.223-2.347,36.641-5.805,61.59c-2.47,25.033-0.206,59.779,5.517,77.812
		c5.765,17.129,27.008,50.559,46.688,74.191c19.68,23.875,45.864,65.789,56.938,94.523c12.311,28.164,42.364,75.18,67.767,104.574
		c43.641,50.559,47.388,60.027,68.22,178.105c20.75,118.074,25.278,128.531,77.359,202.062
		c31.33,42.406,62.743,96.012,71.184,118.902c8.48,22.973,23.838,51.625,34.789,64.965c11.321,12.105,22.932,30.715,27.461,41.172
		c4.734,9.633,3.252,34.992-1.359,56.484c-5.558,21.41-26.884,59.121-49.198,85.223c-21.12,25.609-47.882,52.781-57.886,59.367
		c-11.239,7.492-25.813,12.023-32.565,10.129c-7.781-1.977-48.705-31.207-91.522-65.215
		c-44.011-33.266-90.122-78.223-102.185-99.137c-13.175-20.996-29.685-68.672-37.507-105.891
		c-7.863-37.219-30.589-103.996-50.763-149.613c-30.014-66.859-34.501-85.551-24.085-105.48c8.234-15.48,10.128-38.699,6.011-58.461
		c-4.487-18.855-24.29-49.734-42.981-69.168c-19.68-19.594-44.958-37.629-56.527-40.512c-11.61-3.129-30.754-20.5-42.529-39.109
		c-12.145-20.668-22.396-60.688-24.702-99.551c-1.688-36.477-14.286-87.363-25.648-115.113
		c-11.569-26.844-32.73-68.59-46.276-91.727c-13.38-24.207-37.259-55.168-51.463-68.262c-15.109-13.256-31.824-40.264-37.918-60.438
		c-5.97-20.338-9.552-54.18-7.081-75.342c2.224-32.441-3.952-48.664-34.542-85.469c-20.379-25.033-56.568-83.988-80.076-132.652
		c-33.76-68.754-45-104.82-48.046-160.4c-2.965-55.58-14.698-93.785-53.893-177.443c-27.255-57.639-63.772-131.416-81.105-163.693
		c-17.662-31.455-29.437-65.709-26.926-75.26c2.512-9.635,3.253-32.361,1.853-50.146c-1.317-18.938-14.862-46.357-30.425-61.674
		c-14.45-16.221-35.571-58.049-46.11-92.797c-10.54-34.666-30.837-83.412-45.411-106.879
		c-14.533-23.467-35.365-66.201-44.588-94.363c-10.128-28.488-36.188-82.916-58.05-121.699
		c-21.944-38.783-49.363-80.117-61.921-91.645c-14.121-12.928-28.572-48.91-38.412-97.904
		c-9.222-43.723-13.915-89.422-10.663-101.938c3.335-12.598,2.594-37.629-1.317-54.18c-3.664-17.375-19.885-42.324-35.982-55.828
		c-16.181-13.586-39.4-39.193-52.245-57.062c-12.229-16.715-23.509-48.498-24.991-70.73c-0.699-20.75-4.281-54.756-8.398-74.436
		c-4.158-23.961-18.691-47.264-44.835-69.742c-20.955-18.857-43.929-45.453-50.062-57.557
		c-6.917-13.176-14.122-49.158-17.086-80.859c-2.183-31.619-8.44-78.717-13.916-104.82c-5.846-25.443-28.037-78.717-48.704-118.24
		c-20.956-38.619-36.065-75.59-34.542-81.436c1.771-6.752-14.369-40.018-34.172-75.096c-20.667-35.406-55.168-96.996-75.63-137.508
		c-20.215-41.5-42.446-94.939-48.416-119.23c-6.752-25.525-9.141-55.992-5.888-68.754c3.294-12.352,3.376-40.348,0.453-60.768
		c-2.924-20.504-15.233-63.979-28.572-96.504c-13.216-32.359-43.847-92.881-68.426-133.475
		c-24.002-42.57-47.181-96.174-50.599-122.77c-4.281-26.926-7.163-71.061-8.357-98.398c-0.165-27.008-9.016-64.391-18.732-82.34
		c-10.704-18.363-34.666-53.688-53.728-79.213c-28.243-38.535-36.93-64.391-48.169-143.932
		c-8.769-65.379-23.961-117.83-47.716-165.34c-20.173-41.418-42.241-111.408-53.027-169.047
		c-10.499-58.543-28.408-112.807-41.953-131.826c-12.722-18.857-31.578-65.133-42.365-103.174
		c-11.404-38.947-25.979-101.773-34.871-139.32c-8.604-38.453-26.884-90.658-41.006-115.936
		c-14.945-25.691-34.254-82.506-43.229-127.135c-11.733-57.969-21.902-82.342-36.889-88.188
		c-16.674-7.574-24.208-2.305-42.035,30.301c-12.598,20.422-24.579,58.709-28.037,83.494c-3.417,24.949-0.618,57.803,6.463,74.189
		c6.093,15.975,14.286,44.053,18.733,62.744c5.517,26.266,3.458,42.24-12.64,72.213c-10.951,21.902-29.684,50.062-41.458,63.648
		c-12.763,13.094-28.449,49.24-37.259,83.164c-8.357,31.949-16.18,85.801-16.303,117.748
		c-0.124,31.949-8.316,118.736-18.403,192.514c-9.963,74.023-15.233,161.387-12.187,193.254
		c2.059,31.619,6.793,88.682,8.399,126.229c3.664,60.85-4.282,103.338-79.13,413.352l-82.094,345.502l1.894,135.039
		c0.947,95.186-4.446,171.352-19.927,258.139c-12.722,68.096-28.161,154.965-33.883,192.842
		c-6.999,38.453-14.163,101.525-16.962,140.145c-2.223,39.852-9.675,112.312-17.333,160.893
		c-6.834,49.816-18.609,134.711-26.761,189.385c-9.099,54.51-24.126,167.48-35.118,249.164
		c-11.404,82.916-26.761,185.432-35.036,228.578c-7.246,43.641-16.674,150.684-18.815,238.047
		c-2.1,87.281-5.929,188.561-8.234,225.119c-2.388,36.807-2.758,77.977-1.482,92.799c2.265,15.068-10.086,82.176-27.049,151.014
		c-17.703,67.848-31.66,144.838-33.101,170.197c-0.535,25.609,6.176,79.131,14.204,119.561c10.54,50.145,13.257,99.549,6.34,153.482
		c-5.352,44.135-9.14,106.137-8.975,137.262c0.165,31.125-10.128,149.201-22.232,262.916
		c-12.145,113.547-20.667,229.152-19.474,256.492c1.853,28.242,1.564,80.855-0.041,118.734
		c-1.688,37.711-5.27,103.008-7.946,144.754c-2.553,41.746-4.405,100.043-3.582,128.207c-0.288,28.816-7.987,98.148-19.844,155.047
		c-10.704,57.145-22.85,142.859-27.008,190.371c-4.323,48.5-6.669,152.168-3.664,231.625c1.771,80.035-1.688,184.527-8.563,234.344
		c-7.575,48.578-11.733,124.086-8.316,166.41c2.635,49.156-1.605,100.785-11.486,138.496
		c-8.811,33.762-14.575,91.398-12.722,127.875c2.058,35.738-0.124,79.789-4.447,96.176c-4.57,17.371-8.069,94.031-8.604,171.434
		c-1.194,135.039-2.841,149.035-44.834,309.602c-38.412,147.141-48.705,174.316-78.224,216.266
		c-18.567,27.215-40.1,50.559-46.975,52.824c-8.028,3.129-43.6-3.172-81.559-12.023c-36.971-8.562-92.881-20.09-123.018-23.836
		C1198.163,8250.676,1183.135,8244.789,1153.863,8218.359z"/>
	<path fill="#080808" d="M9855.809,8803.512c-14.121-12.969-48.869-26.141-103.09-40.348
		c-54.51-13.215-90.205-26.719-104.121-40.676c-12.557-11.566-37.053-47.961-54.18-81.352
		c-16.922-34.418-36.889-92.344-42.488-130.016c-6.67-37.879-24.25-97.285-39.359-130.141
		c-15.396-36.066-43.105-76.371-66.654-96.996c-21.861-19.188-46.275-48.254-54.592-63.898
		c-8.564-14.695-16.057-41.375-18.115-57.516c-1.646-16.918,0.289-44.297,4.857-61.672c4.283-16.508,4.529-37.176-0.494-45.656
		c-5.021-8.566-20.172-17.707-33.717-21.246c-13.504-3.539-32.072-15.562-41.707-26.43c-9.592-10.707-17.455-43.809-18.566-75.098
		c-1.648-29.477-16.387-123.18-33.719-207.25c-17.252-84.07-43.971-195.559-59.41-247.188
		c-18.691-62.742-28.9-130.43-31.578-199.348c-1.77-60.438-14.203-143.355-28.695-194.488
		c-13.133-49.074-33.842-108.113-45.451-130.84c-11.693-22.809-28.984-78.883-38.865-123.84
		c-8.975-44.793-15.686-113.797-13.668-153.566c1.852-38.699,7.492-87.941,12.803-108.277c7.576-28.984,4.57-45.207-15.191-76.168
		c-15.975-26.02-22.52-52.449-20.256-76.656c2.1-20.176-0.576-80.695-5.805-135.945c-5.518-54.098-6.588-132.98-2.018-174.234
		c3.582-41.418,4.404-115.523,0.781-165.094c-3.58-49.488-5.352-105.809-4.486-125.238c1.936-19.188-2.635-49.242-9.223-67.52
		c-8.316-19.762-7.492-66.121,0-130.266c6.094-55.168,8.852-128.863,6.793-164.516c-1.977-35.736-11.65-109.68-21.203-163.695
		c-8.439-55.002-20.42-111.982-26.596-127.957c-5.105-15.891-18.938-65.873-29.848-111.16
		c-10.869-45.287-19.475-99.139-17.621-118.406c0.863-19.35,0.494-49.486-1.523-65.379c-1.646-17.127-16.963-41.746-33.514-57.391
		c-16.838-14.656-42.939-49.486-58.379-77.236c-15.521-27.83-40.553-62.332-54.963-78.553
		c-14.574-15.15-31.742-48.498-39.441-74.354c-7.492-26.762-15.727-74.354-18.279-108.195
		c-2.471-33.76-14.574-86.377-26.885-118.654c-16.467-39.359-36.105-67.189-62.537-88.598
		c-21.367-16.963-45.494-39.854-53.852-51.299c-7.41-11.199-20.627-43.559-29.271-69.744c-8.439-27.09-32.236-70.318-53.357-96.75
		c-28.654-36.395-41.459-66.449-53.645-126.557c-8.564-42.488-24.25-93.211-33.719-112.148
		c-10.705-18.279-22.973-54.51-28.736-79.707c-4.818-25.113-20.709-59.449-35.078-75.506c-14.121-17.209-45-61.262-69.084-99.715
		c-23.262-37.137-45.781-85.305-50.475-107.291c-4.611-21.654-20.75-55.002-36.477-73.447
		c-14.615-19.35-39.606-66.201-56.115-105.727c-15.892-38.287-30.672-80.529-31.537-93.045c-1.812-12.762-0.535-45.615,2.759-73.611
		c2.923-27.256,3.993-58.875,1.399-69.084c-2.264-10.787-26.555-32.607-53.562-47.924c-31.084-19.514-53.397-40.922-63.361-62.166
		c-8.522-18.773-19.433-48.334-23.796-67.025c-4.405-18.939-22.809-47.43-40.554-62.414c-17.538-15.975-46.151-56.486-62.579-88.6
		c-17.085-33.514-40.882-81.188-53.892-106.137c-15.728-30.961-22.396-64.803-21.697-107.127
		c1.317-32.689-2.635-68.836-7.163-79.293c-5.641-9.799-15.274-44.383-21.491-75.836c-7.205-31.867-22.19-81.354-34.254-110.256
		c-11.98-28.9-39.276-86.787-60.438-128.533c-29.891-59.449-48.582-83-82.053-105.066c-33.719-21.326-50.764-43.229-78.718-102.35
		c-28.037-58.791-34.748-84.564-31.166-121.865c3.705-25.938,4.94-54.428,4.075-62.99c-1.193-7.576-13.133-25.113-26.596-36.889
		c-22.521-20.338-27.379-21.574-43.229-12.27c-12.145,7.164-17.909,21.08-20.626,47.346c-1.235,20.256,5.022,55.91,13.216,79.953
		c14.162,36.643,13.175,56.074-4.981,145.332c-11.734,56.732-18.197,117.172-15.728,135.533
		c2.676,17.127,1.894,67.684-1.482,112.395c-2.182,43.641-2.594,104.574,0.042,134.051c2.511,29.727-0.659,101.279-6.547,159.742
		c-6.999,58.051-20.544,149.531-31.577,203.465c-11.034,54.098-23.591,137.592-28.737,185.02
		c-4.981,62.496-23.303,140.555-63.155,280.947l-56.156,195.23l-65.338,99.797c-37.177,55.168-82.012,115.936-100.62,135.861
		c-21.697,23.303-41.171,34.666-56.198,32.854c-13.998-1.564-37.63-18.113-56.691-39.688c-17.621-20.092-53.645-48.17-78.059-61.674
		c-25.032-14.902-62.168-30.713-82.465-36.064c-20.421-5.27-57.021-27.338-84.605-52.039
		c-31.989-28.078-66.86-76.578-103.543-141.957c-53.274-96.502-56.609-99.467-92.758-103.748
		c-23.961-3.129-44.464-11.527-53.851-23.385c-7.945-9.223-18.897-42.158-23.22-73.201c-4.488-30.219-21.614-79.213-36.93-107.867
		l-27.832-51.709l25.073-48.252c13.175-26.598,32.565-57.721,42.858-69.414c9.428-12.021,25.979-20.092,35.283-19.762
		c10.087,0.658,23.632,8.316,29.519,17.127c6.012,8.729,13.546,31.371,15.975,49.568c3.911,24.785,15.851,42.57,40.841,61.344
		c24.291,17.705,43.188,24.621,55.333,21.738c10.951-2.305,28.449-10.209,39.977-18.443c10.252-7.822,38.33-48.006,61.591-89.422
		c23.55-42.406,44.135-85.635,47.141-97.162c3.005-11.611,2.47-49.158-0.782-83.824c-4.529-54.18,0.535-93.127,41.253-272.547
		c25.896-115.277,60.438-278.807,76.165-362.547c24.414-129.111,27.296-167.564,21.326-247.764
		c-6.999-91.811-5.435-101.527,45.658-329.117c28.654-129.027,56.732-259.949,60.932-291.98
		c4.982-30.713,2.594-81.105-3.828-111.572c-6.711-29.725-9.634-73.777-5.6-97.574c3.458-25.113,15.728-60.107,27.79-78.553
		c12.063-18.691,52.986-52.369,89.134-76.082c52.904-32.607,76.865-40.924,116.801-39.689c37.177,0.33,58.421,6.094,88.063,22.973
		c28.943,15.975,49.445,39.854,74.766,85.801c19.762,35.076,56.115,85.963,80.982,113.219
		c25.031,27.008,49.239,64.473,53.728,83.164c4.116,19.68,19.021,53.521,33.554,76.988s40.182,56.074,58.009,71.061
		c17.498,15.891,38.412,30.631,46.193,32.771c7.74,2.059,23.303,17.373,35.53,34.006c11.239,16.387,34.048,79.213,49.692,138.086
		c15.604,58.873,37.63,132.898,47.964,164.518c15.933,45.533,18.073,77.07,11.568,149.859c-5.558,56.24-4.281,99.057,2.594,112.23
		c6.341,10.951,34.295,34.83,60.851,52.123c45.946,29.477,49.815,34.664,66.243,106.219c9.016,40.512,33.06,102.68,52.78,137.922
		c18.855,34.748,41.87,81.105,49.651,102.844c6.834,21.326,29.602,72.789,49.98,113.301c22.521,44.053,50.476,83.576,70.443,97.82
		c21.655,16.139,44.135,48.828,62.908,91.975c16.016,37.383,29.107,86.129,29.354,109.184c0.247,22.562,5.846,60.273,14.368,83.082
		c7.494,22.727,30.137,58.709,49.898,78.307c32.773,32.359,37.055,43.641,41.254,106.797c1.275,38.535,9.182,91.398,16.674,118.158
		c9.387,35.572,24.373,57.062,58.256,85.389c28.82,24.207,62.537,69.084,92.551,124.498
		c26.596,48.334,52.492,103.668,56.857,122.359c5.846,25.443,16.592,39.605,39.729,49.734c23.92,11.361,33.225,23.219,35.242,43.311
		c2.018,15.975,2.512,61.508,2.512,100.949c-0.988,67.025,3.006,79.295,57.309,176.127c40.924,72.789,61.469,124.582,70.484,173.492
		c6.547,37.959,20.668,83,30.877,98.975c10.252,16.303,36.107,47.758,57.68,71.883c26.391,29.725,39.482,55.004,42.941,84.729
		c2.264,23.221,8.521,54.84,12.639,70.484c4.199,15.727,10.375,47.182,12.559,70.402c2.881,28.736,13.791,50.145,33.018,67.602
		c15.15,13.256,34.172,23.467,42.652,22.643c8.523-0.988,27.955-23.713,44.465-51.545c21.531-34.666,33.307-67.85,39.07-109.76
		c6.711-41.582,3.912-74.354-7.369-106.221c-15.562-43.393-14.781-50.311,15.891-171.434
		c17.992-68.836,31.496-136.604,30.756-149.119c-0.906-12.68,1.77-58.545,5.887-101.938c3.17-43.641,6.053-114.043,5.805-156.529
		c-0.246-42.324,3.746-120.959,8.234-173.576c5.434-52.533,25.238-168.139,44.217-256.326
		c31.66-148.789,33.719-164.6,21.449-216.475c-11.404-47.346-9.881-72.953,8.359-166.328
		c17.662-87.281,20.832-135.121,16.303-228.248c-6.793-112.396-4.734-128.371,32.4-294.369
		c29.684-136.934,36.725-183.703,30.508-211.287c-5.188-19.762-17.908-50.062-28.943-67.271l-19.721-31.125l52.617-201.242
		c27.789-110.5,52.902-210.463,54.674-221.332c2.1-11.773-6.053-48.004-17.004-80.941c-19.145-53.686-18.938-66.037-3.006-126.887
		c9.84-37.795,22.521-114.041,27.955-170.527c5.229-55.416,10.211-133.723,9.387-174.234c-0.988-39.523,4.57-127.875,11.158-196.547
		c6.504-68.672,8.811-140.309,6.793-160.564c-3.17-19.35-15.439-51.627-28.119-70.318c-12.641-18.857-23.467-52.617-22.975-74.355
		c-0.904-28.16,7.164-55.002,26.803-94.197c22.273-45.863,25.566-62.578,24.373-109.348c-1.318-30.385-0.412-73.613,1.359-95.846
		c1.605-22.232-1.648-57.309-7.74-77.4c-7.947-24.785-6.834-64.967,3.334-123.264c8.234-47.43,11.816-112.725,8.811-144.508
		c-3.088-31.701-10.58-106.057-15.975-164.189c-6.463-58.543-10.127-123.676-9.592-145.166c0.205-20.75,7.205-91.316,14.738-155.377
		c11.652-92.139,11.898-136.439,0.783-204.453c-14.41-79.293-13.092-96.42,9.016-204.369
		c18.361-86.129,21.902-127.711,15.975-155.953c-5.971-21.326-18.115-57.639-27.832-79.707
		c-13.338-28.406-16.426-51.957-10.086-76.082c5.311-20.338,2.553-61.344-5.477-97.574c-11.115-44.299-12.35-90.986-5.146-158.506
		c8.4-79.377,6.547-111.82-11.361-181.809l-22.357-84.234l27.832-106.467c19.557-78.719,24.99-115.359,18.939-139.65
		c-4.406-18.857-25.979-70.979-47.059-116.76c-21.984-46.029-41.994-104.162-45.904-128.945
		c-2.594-25.361,1.234-87.529,10.004-136.934c8.068-50.557,11.816-108.359,9.139-129.77c-2.963-20.502-4.445-62.166-2.881-91.809
		c1.729-30.549-0.33-61.922-5.352-70.566c-4.035-8.234-17.004-18.033-29.561-21.244c-16.387-4.117-25.896,0.494-35.572,17.621
		c-7.699,13.504-35.324,146.73-62.168,296.92c-25.895,150.355-48.621,300.463-49.238,334.387
		c-0.742,34.994-15.234,113.959-33.184,182.633c-17.457,66.695-36.395,158.918-42.941,203.711
		c-5.805,46.027-9.057,121.699-6.875,168.717c2.059,47.098,8.893,116.182,16.797,153.236c7.328,39.111,8.275,82.752,2.471,105.066
		c-5.6,21.326-12.887,92.799-16.715,159.082c-3.129,67.273-8.852,144.262-12.805,171.188c-3.17,28.242-6.834,97.49-8.688,155.953
		c-0.863,58.627,1.689,135.863,6.588,172.174c5.887,36.643,22.314,96.752,37.137,134.875c15.191,36.971,27.336,77.4,27.172,89.752
		c0.205,11.363-2.924,54.922-4.652,96.998c-3.459,56.896,1.688,92.303,22.645,150.602c20.791,59.119,25.689,91.48,21.449,151.342
		c-2.676,41.5-3.953,113.877-3.459,159.33c0.742,68.342-3.951,98.232-27.789,169.457c-17.045,53.357-37.918,97.574-52.574,114.453
		c-13.381,15.068-39.689,28.82-60.109,31.867c-20.338,2.799-54.758,0-77.031-5.848c-32.854-8.48-43.887-17.703-62.248-50.311
		c-11.734-22.643-23.756-71.389-27.174-113.465c-2.963-40.182-10.375-94.857-15.686-121.947
		c-5.229-27.254-11.732-81.682-12.516-122.111c-1.977-39.854-9.717-93.539-17.621-118.488
		c-7.039-24.373-19.35-72.295-26.266-104.902c-9.676-46.111-9.635-73.941,2.922-118.158c8.357-31.949,27.625-89.918,42.158-129.605
		c15.48-39.277,28.326-84.482,27.955-98.973c0-15.646-22.191-69.084-50.846-117.83c-35.158-62.992-57.145-117.254-70.607-180.738
		c-13.627-62.498-18.607-122.688-15.15-190.949c3.047-55.086,3.623-108.771,1.07-118.818c-2.387-10.785-0.658-80.693,3.623-156.035
		c7.617-120.053,6.176-142.037-13.586-185.514c-12.598-26.926-24.826-63.32-27.502-80.529
		c-3.664-21.656,17.498-114.289,69.414-316.848c52.863-202.064,72.912-290.992,66.777-302.768
		c-3.787-9.305-7.039-72.213-6.711-140.391c0.166-83.658,6.094-146.238,19.062-195.479c13.627-52.367,17.004-96.832,13.834-167.975
		c-3.705-52.615-3.047-118.488,0.205-146.73c5.518-40.924,10.457-52.123,26.803-59.121c10.744-5.27,36.848-18.279,56.074-28.82
		c35.859-18.443,36.559-21.408,50.969-92.057c9.758-53.357,10.662-88.105,0.494-132.074c-11.857-57.969-11.24-64.061,19.555-154.061
		c26.062-75.836,30.961-102.678,25.979-134.873c-3.375-22.645-14.367-59.533-26.348-81.354c-10.623-22.396-18.609-47.1-16.305-55.91
		c2.018-7.74,19.928-33.1,40.389-55.662c20.379-22.479,54.799-51.709,78.059-65.379c23.139-13.586,61.098-24.289,88.229-25.443
		c27.955,0,64.555,6.588,87.693,16.717c22.232,9.963,50.352,28.736,63.361,42.486c11.98,13.34,27.873,43.312,33.719,64.473
		c6.834,21.492,27.955,63.238,47.305,92.059c26.926,39.193,35.611,65.049,38.289,110.336c1.77,40.594,10.91,68.838,30.096,94.609
		c14.326,20.174,42.322,55.58,61.672,80.283c29.727,36.559,34.83,52.451,38.084,115.277c1.729,40.676,13.01,116.018,25.771,170.033
		c12.805,53.934,18.98,109.35,14.615,125.898c-5.516,21.162-0.369,41.172,16.057,69.168c13.135,21.078,30.961,47.428,40.143,60.273
		c9.303,11.691,17.373,47.758,17.826,82.176c0.576,33.102,18.814,141.297,40.264,240.93c21.492,99.715,39.4,197.453,39.4,217.049
		c0.947,19.846-2.594,65.379-8.604,100.127c-4.941,34.83-8.07,78.389-7.576,96.174c0.494,17.703-9.676,88.436-22.273,156.365
		c-17.949,92.553-22.561,137.758-16.221,176.705c5.023,28.242,23.096,81.6,41.418,118.322
		c17.58,35.572,36.436,81.848,40.635,101.527c4.404,18.855,6.176,59.531,3.828,87.857c-1.482,29.561,2.676,77.236,8.646,105.643
		c6.998,28.654,7.74,69.166,2.676,88.518c-5.311,20.42-9.305,55.58-10.004,78.141c-0.783,22.396-10.498,119.064-21.285,215.486
		c-10.705,96.504-23.715,193.254-29.271,214.662c-5.766,22.15-5.105,55.416,0.205,74.438c6.381,19.268,17.414,83.986,24.455,144.014
		c13.34,102.514,12.557,113.713-12.68,210.545c-16.963,64.721-24.867,114.371-21.369,136.934
		c3.172,19.514,16.346,55.992,31.578,80.611c14.287,24.619,28.449,61.098,30.713,80.447c3.459,22.561-3.17,67.438-18.32,121.287
		c-20.668,75.26-22.066,92.469-11.445,142.779c7.164,31.701,11.568,98.15,10.086,147.309
		c-0.576,49.404,5.518,117.336,15.316,150.766l16.797,62.414l-39.605,139.402c-37.547,131.746-38.865,144.838-35.365,241.918
		c2.84,56.65,0.535,132.404-5.846,168.963c-5.559,36.807-7.904,97.164-3.211,134.629c3.498,38.123,8.686,73.611,12.021,80.775
		c3.334,6.834,1.482,37.547-2.184,67.438c-3.705,30.219-3.58,61.18,0.453,69.496c4.035,8.316-4.117,71.225-17.086,140.145
		c-12.557,68.096-22.602,142.037-23.26,164.434c0.494,21.902,7.451,74.52,15.973,117.006c7.535,42.16,13.711,121.289,12.188,174.729
		c-2.924,85.963-6.258,102.844-26.432,132.568c-20.996,32.771-21.531,38.865-8.48,87.775c7.039,28.654,13.051,96.422,12.475,149.943
		c0.369,53.85-1.73,117.334-4.199,142.531c-2.471,25.279-2.512,61.344,0.41,81.93c3.088,19.35,13.629,54.098,25.279,76.906
		c11.898,21.738,27.131,69.988,34.543,104.984c10.127,48.252,10.539,78.389,0.451,116.924
		c-11.939,45.535-10.58,60.438,9.264,106.879c12.764,30.219,22.768,70.895,22.809,90.656c0.865,28.326-10.91,57.227-51.34,133.393
		c-28.447,53.521-66.531,120.135-85.346,148.461c-18.527,27.008-40.141,74.189-47.922,104.078
		c-10.17,38.783-11.158,66.449-3.459,92.141c7.988,24.783,7.123,68.096-1.811,129.852c-10.5,71.471-9.965,112.971,2.346,184.607
		c12.557,74.518,12.146,107.455-0.453,179.504c-8.811,49.404-15.273,109.842-14.82,135.861c0.453,25.855,2.922,67.768,5.764,92.305
		c1.977,24.291-5.641,100.867-17.785,171.104c-11.898,69.248-22.273,152.414-22.068,183.373
		c0.123,31.125-6.299,83.164-14.615,115.031c-7.369,32.111-14.451,79.047-15.934,104.408
		c-0.576,25.689-10.127,86.375-20.625,134.133c-13.176,58.545-17.334,106.219-13.094,141.215
		c3.459,29.889,13.916,81.27,21.82,114.371c8.564,34.172,21.203,104.738,28.162,157.188c5.639,53.109,20.172,124.09,30.506,159.824
		c10.5,34.914,18.732,67.027,17.416,71.883c-1.482,5.766,4.117,19.68,12.27,32.031c8.109,12.516,15.479,43.395,14.943,69.086
		c-0.205,24.699,8.852,65.379,20.709,91.23c17.539,35.574,20.873,62.332,15.934,116.762c-3.746,38.289-1.523,81.27,4.322,94.195
		c6.67,14.164,30.754,32.855,56.527,44.715c23.838,11.445,49.857,30.629,56.98,42.816c6.01,13.09,13.873,46.027,15.973,73.531
		c3.129,27.582,16.387,75.422,29.191,105.641c13.75,30.633,26.473,64.969,29.477,77.07c3.047,12.188,3.541,38.207,2.266,58.465
		c-1.4,21.242,1.688,44.957,8.729,54.016c6.916,8.973,15.85,34.172,20.707,55.004c4.611,21.82,25.527,64.555,46.812,93.867
		c21.037,30.219,42.816,73.117,47.51,94.938c4.281,23.059,8.975,60.355,9.016,84.234c0.166,22.727,6.424,78.062,14.451,122.605
		c7.246,43.148,25.732,106.879,39.646,140.559c17.086,41.582,24.373,84.891,24.127,129.191
		c-0.412,37.301,3.416,85.801,9.057,107.949c4.57,21.984,24.703,67.355,45,100.621c24.455,40.594,37.713,76.988,39.564,109.676
		c2.512,37.797,14.533,66.781,50.311,119.559c29.148,42.738,51.01,89.754,56.486,120.137c5.311,27.254,18.566,75.176,30.219,106.055
		c10.457,30.715,21.037,73.859,21.656,94.609c1.439,22.027,8.562,66.367,16.674,98.523c8.191,32.113,14.492,98.809,12.969,148.008
		c-1.482,49.238,3.828,123.922,10.58,164.969c8.193,51.793,7.945,96.258-0.74,141.504c-8.482,44.297-21.697,79.086-42.201,109.883
		c-21.119,33.801-44.957,53.355-90.121,75.672c-47.471,23.754-67.438,28.941-85.1,21.121c-12.721-6.383-34.871-20.422-50.598-31.785
		c-24.25-17.703-32.896-20.09-66.779-13.34c-21.656,3.625-45.863,5.598-55.539,3.047
		C9884.217,8825.375,9867.295,8814.875,9855.809,8803.512z M9851.486,8191.473c13.916-9.715,14.285-18.938,5.969-58.336
		c-5.805-25.238-7.697-69.168-4.527-97.246c6.051-42.98,2.182-63.648-25.402-120.465c-21.08-45.699-33.02-87.117-34.254-125.734
		c-0.248-30.961-5.023-75.754-9.387-98.645c-5.641-21.984-23.715-55.746-41.418-74.848s-30.342-42.078-28.119-50.723
		c2.264-8.727,15.48-39.441,30.096-67.602c13.668-28.57,24.949-63.812,25.648-77.977c-0.123-15.645-12.186-40.512-28.49-57.145
		c-24.537-24.949-27.789-40.348-30.836-119.723c-3.17-82.426-7.617-97.164-46.439-162.047
		c-22.893-38.949-46.152-88.434-51.506-111.574c-4.527-21.984-9.098-52.039-9.428-66.531c-0.617-13.504-10.375-51.379-21.162-80.941
		c-14.49-40.098-17.744-66.777-10.867-92.715c5.27-20.336,8.439-48.582,6.875-62.414c-1.523-13.832-11.939-33.02-23.467-44.383
		c-11.775-10.293-24.127-38.453-27.996-63.07c-4.076-23.797-18.773-54.512-32.73-68.426c-12.682-14.738-27.215-26.844-30.014-27.586
		c-3.912-1.152-16.262,26.762-29.85,62.414c-21.16,57.559-22.932,72.543-13.586,158.672c4.9,53.027,19.434,119.887,31.455,148.871
		c12.805,30.387,23.137,81.438,24.002,117.996c0.289,38.207,9.758,81.023,22.604,107.125c12.309,23.879,28.488,57.145,37.547,73.941
		c8.234,15.48,17.086,53.109,19.926,81.684c2.76,36.805,14.574,66.777,41.129,103.832l36.025,51.543l-31.826,98.316
		c-22.312,65.461-32.977,110.254-31.289,135.449c1.73,25.281,12.146,44.547,34.707,64.969
		c26.885,23.469,32.607,37.383,33.389,73.777c0,23.797,4.693,61.18,9.553,82.094c5.846,21.242,24.867,55.168,41.17,75.918
		c20.586,24.043,31.906,51.711,35.16,86.707c3.17,27.746,14.121,68.754,25.484,92.383c11.404,23.715,25.113,58.383,29.477,77.074
		c6.053,24.289,15.193,36.969,31.578,41.293C9824.189,8200.941,9841.439,8198.227,9851.486,8191.473z M9458.432,6413.363
		c3.623-9.469,10.17-34.664,14.697-56.156c4.57-21.656,5.889-50.145,3.129-63.238c-3.457-18.445-13.461-27.336-37.67-33.594
		c-20.297-5.434-36.354-3.293-41.582,4.527c-5.846,6.836-10.17,23.223-9.594,36.727c-0.082,12.516,10.746,46.438,23.18,73.363
		c13.586,27.254,29.107,50.887,33.924,52.289C9449.416,6428.516,9456.209,6421.926,9458.432,6413.363z"/>
	<path fill="#080808" d="M5164.192,7356.66c-23.55-16.387-63.032-51.379-85.964-78.141
		c-23.92-26.926-77.729-106.055-121.041-177.363c-42.693-70.07-81.929-145.496-86.046-165.176
		c-4.899-20.996-19.68-63.074-33.143-94.445c-14.533-31.699-23.344-64.965-20.626-75.754c2.594-9.551,21.038-36.887,41.17-58.379
		c19.392-22.891,49.487-47.016,65.832-54.18c16.386-7.082,56.403-14.164,89.957-15.809c32.195-0.742,70.607-5.188,85.182-9.719
		c18.979-5.352,27.049-16.633,34.707-45.613c5.517-21.328,4.857-66.121-0.618-100.457c-5.394-34.5-8.151-99.387-5.723-144.18
		c2.347-44.875,12.104-109.43,21.162-144.344c13.38-51.297,24.331-73.199,59.738-113.547c32.689-37.961,50.269-49.98,68.096-47.348
		c16.262,1.152,32.112,15.727,50.722,47.348c17.415,28.324,32.154,78.637,41.459,137.922c7.163,51.625,19.762,130.262,26.72,174.645
		c8.028,44.297,11.98,108.441,8.646,140.637c-2.553,33.512-9.017,78.223-14.615,99.387c-6.3,24.371-5.064,67.188,3.211,110.5
		c8.028,40.348,9.593,93.539,4.487,125.242c-7.863,45.449-5.558,60.52,15.233,91.809c20.009,30.137,25.072,58.215,28.078,145.906
		c2.347,65.711-2.182,130.676-10.54,162.625c-8.398,31.949-26.143,68.672-42.94,89.012c-15.438,19.762-40.43,40.098-55.292,45.449
		c-16.098,6.258-45.658,4.613-75.63-3.211C5230.558,7391.738,5189.018,7372.551,5164.192,7356.66z"/>
	<path fill="#080808" d="M17205.635,10381.863c-6.957-4.941-26.596-32.73-42.529-62.742l-30.219-54.43l-56.938-7.699
		c-31.701-5.145-68.098-8.438-79.377-8.316c-15.357-0.906-32.896-16.879-58.916-55.742c-20.955-30.262-48.992-65.504-63.195-78.473
		c-15.77-14.531-25.732-35.695-25.361-53.148c0-15.523-3.459-38.125-8.893-48.871c-5.477-10.746-26.926-27.668-48.375-36.395
		c-21.986-10.91-45.783-30.59-57.229-50.105c-12.104-20.75-17.785-54.305-16.756-90.203c2.141-55.25,3.129-59.121,38.125-94.402
		c23.549-22.77,51.627-39.195,77.893-44.715c25.033-4.855,60.686-2.758,89.424,5.766c27.09,7.082,61.467,18.156,76.412,24.125
		c16.18,5.23,67.107,12.312,115.07,14.535c47.965,2.223,107.949-1.73,133.723-9.43c36.764-10.047,50.104-9.633,63.566,2.102
		c9.059,8.562,32.318,38.41,50.887,66.035c19.309,28.863,45.082,53.152,57.68,56.406c12.516,3.293,42.365-0.289,65.215-8.77
		c22.932-8.441,47.016-13.547,53.768-11.777c5.805,1.523,31.125,15.398,56.197,30.18c24.127,14.613,48.459,36.434,54.84,47.426
		c5.188,11.695,14.41,59.574,19.432,107.375c6.299,47.141,9.471,90.367,8.193,95.184c-1.482,5.848-19.35,18.777-38.824,30.18
		c-22.973,12.598-48.828,39.977-66.984,70.32c-16.344,26.801-36.023,54.672-43.434,63.07c-8.07,7.207-34.871,18.816-59.162,24.867
		c-25.525,6.711-79.172,29.934-120.176,52.328c-40.924,22.355-81.395,38.617-89.094,36.641c-7.74-2.059-19.926-3.168-28.16-3.211
		C17224.902,10391.086,17212.635,10386.762,17205.635,10381.863z"/>
	<path fill="#080808" d="M29927.049,13415.258c-1.727-5.555,1.484-9.922,6.34-8.684c5.766,1.562,9.387,7.613,8.07,12.473
		c-1.398,5.805-4.527,9.18-6.34,8.605C29932.236,13426.953,29928.365,13421.805,29927.049,13415.258z"/>
	<path fill="#080808" d="M13459.539,8923.938c-17.869-26.309-43.064-56.734-57.928-66.781
		c-13.998-9.879-69.742-33.758-124.582-53.273c-77.605-27.582-116.553-36.723-177.65-40.223
		c-75.342-4.16-78.266-4.98-112.561-35.652c-23.342-21.574-46.275-32.773-67.354-35.203c-17.168-1.359-54.098-2.715-80.941-2.594
		c-38.371,0.332-72.254-8.48-149.531-36.93c-86.498-32.938-107.166-44.586-158.877-92.18
		c-32.441-30.219-80.898-73.902-106.877-97.285c-26.186-22.273-53.48-56.32-61.057-74.727
		c-6.588-18.359-11.486-78.512-11.363-134.336c1.111-55.582,3.459-120.012,5.393-143.273c2.924-22.973,9.512-52.289,16.922-64.887
		c8.234-15.398,28.654-26.512,59.326-33.02c25.238-5.844,63.938-19.512,86.459-30.137c38.041-19.02,44.34-19.43,108.072,1.402
		c59.984,19.762,73.283,28.406,118.324,77.398c36.641,41.625,72.254,67.562,134.01,100.211
		c53.562,28.449,90.203,54.633,102.02,72.172c10.252,16.098,42.117,56.484,72.008,92.18c29.271,34.5,72.953,76.988,96.543,93.496
		c24.498,16.719,53.234,33.516,65.832,36.848c12.557,3.211,31.043,23.594,43.889,45.578c15.973,29.93,39.482,50.598,87.691,79.703
		c35.695,21.781,97.615,57.641,136.439,79.133c39.73,21.738,92.676,44.914,117.83,51.504c28.078,7.285,65.338,26.309,91.604,48.746
		c30.055,23.383,54.758,55.578,74.23,95.844c20.297,44.586,25.691,67.684,19.062,92.879c-5.559,21.246-18.074,37.672-37.424,48.047
		c-15.77,9.387-46.482,15.77-68.961,15.027c-21.615-0.41-72.953-9.715-114.535-20.586
		C13492.021,8973.793,13490.086,8973.301,13459.539,8923.938z"/>
	<path fill="#080808" d="M18724.865,8464.844c-23.221-21.613-49.076-49.031-57.928-62.742c-8.852-13.629-15.891-38.164-14.984-53.48
		c0.904-15.316-20.916-66.492-48.5-115.031c-38.783-64.926-59.861-91.109-87.816-106.715c-20.791-11.648-52.41-29.188-70.484-39.109
		c-18.113-9.883-49.527-39.77-70.564-65.875c-20.834-27.254-47.635-63.152-58.586-80.527
		c-11.939-17.539-30.303-65.707-42.199-107.125c-10.953-41.172-32.979-91.316-48.336-111.82
		c-15.109-21.574-38.988-48.5-54.385-60.766c-14.205-13.094-53.398-44.879-86.828-71.227
		c-39.195-32.031-72.707-69.66-94.199-106.301c-18.525-31.867-32.977-71.637-33.678-88.516c0.289-24.621-6.01-32.527-38.369-47.102
		c-20.256-9.551-46.275-24.535-55.416-33.102c-9.799-9.879-21.779-43.062-27.049-74.27c-7.617-42.406-15.316-59.863-31.043-67.191
		c-12.145-5.023-40.717-6.34-64.555-2.305c-23.756,4.035-50.928,5.352-59.615,3.047c-8.811-2.469-24.002-22.727-33.801-44.957
		c-10.828-25.691-28.777-47.758-50.475-59.781c-17.869-10.867-42.611-30.797-53.398-44.957
		c-10.787-14.164-25.648-48.086-33.102-74.848c-9.633-34.582-22.768-55.582-42.281-67.766
		c-15.811-10.375-49.404-28.41-74.025-41.172c-23.549-12.27-85.963-58.711-138.373-103.422
		c-75.672-66.117-96.998-91.48-114.947-133.309c-20.504-51.875-21.574-52.121-79.5-67.438
		c-31.949-8.316-73.242-24.207-92.799-36.559c-22.355-13.094-42.035-36.723-52.203-61.262
		c-8.977-20.914-30.014-51.215-47.758-66.203c-16.633-15.645-58.01-47.18-91.234-70.316
		c-31.99-23.797-109.143-64.641-170.486-91.152c-61.262-26.434-128.164-59.285-148.09-73.777
		c-34.955-24.621-42.695-26.762-123.225-27.09c-76.371-0.332-92.92,3.621-153.152,36.312l-67.686,37.301l-35.818,109.512
		c-19.762,59.945-37.711,128.453-39.936,152.742c-2.223,24.289,1.607,81.188,9.346,126.477c7.74,45.535,9.717,113.137,5.395,153.398
		c-5.105,39.031-4.076,102.352,0.617,139.816c5.393,38.453,21.531,99.633,37.588,136.934
		c14.945,37.875,29.107,94.281,32.113,126.227c3.088,31.703,8.564,66.203,11.404,75.18c2.676,9.055,13.711,50.227,22.686,90.738
		c13.256,56.238,24.332,80.941,48.705,102.68c16.592,15.727,39.111,40.184,48.539,55.004c8.357,15.809,22.025,58.461,27.666,96.172
		c6.834,37.055,18.486,79.215,26.432,92.719c8.564,14.738,12.682,34.418,9.922,44.957c-3.047,11.609-19.967,28.902-37.094,38.863
		c-26.803,15.645-36.271,16.387-72.543,0.66c-23.426-9.223-52.656-31.289-66.861-48.336c-13.873-18.195-58.584-52.695-100.785-77.07
		c-41.951-25.441-82.875-50.555-90.615-56.895c-8.646-6.262-21.285-29.152-27.832-51.711c-6.217-23.223-32.359-81.766-56.732-130.43
		c-24.455-48.91-55.332-112.805-67.438-141.707c-11.074-28.82-57.186-113.137-100.826-187.656
		c-47.881-81.766-85.346-159.66-93.703-195.148c-12.311-51.625-22.068-65.625-72.254-110.828
		c-45.453-39.691-65.338-66.699-89.629-123.594c-17.539-39.855-38.74-77.32-47.676-82.754c-8.852-5.516-30.918-12.188-48.539-15.809
		c-23.715-4.035-34.83-13.34-44.793-34.418c-7.082-16.387-20.256-56.98-29.066-90.41c-14.451-51.301-24.25-65.133-60.891-91.316
		c-23.303-17.375-55.498-40.348-70.979-52.781c-20.668-15.562-30.631-36.805-40.924-92.305
		c-7.369-39.027-21.449-79.953-31.371-89.832c-9.553-10.707-29.273-26.188-44.918-33.434c-14.533-7.82-49.156-29.312-75.506-47.59
		c-28.16-18.773-62.168-54.594-82.383-87.613c-19.102-29.805-39.275-55.824-44.094-57.062c-4.816-1.234-29.023-31.453-52.121-65.461
		c-23.879-35.074-58.668-72.047-79.129-84.48c-20.75-11.855-55.621-40.512-79.666-63.32c-25.607-24.453-63.73-48.746-94.855-60.109
		c-47.182-17.371-57.309-17.867-109.391-0.656c-36.312,12.348-80.57,39.027-122.811,74.516
		c-66.078,55.086-66.326,56.074-86.088,131.5c-13.34,51.133-17.744,95.516-14.82,135.531c2.594,33.844,0.369,77.73-4.9,98.07
		c-5.352,20.172-16.674,44.133-25.279,53.355c-10.086,10.703-20.09,13.34-28.736,6.754c-7.945-5.105-19.35-4.941-25.979,0.574
		c-5.6,5.766-14.326,23.055-18.402,38.617c-3.994,15.316-1.771,54.18,5.146,87.199c7.41,39.031,7.615,85.637-0.166,135.371
		c-6.711,41.414-14.08,108.77-14.986,147.801c-1.07,40.266-14.08,117.418-29.023,174.48c-14.658,56.074-35.449,115.77-45.576,130.59
		c-10.334,16.059-28.408,29.891-40.018,30.879c-11.734,1.234-33.266-3.539-47.223-9.223c-14.039-5.68-41.129-32.359-60.314-58.051
		c-20.957-30.383-53.934-58.625-90.535-80.527c-31.658-17.539-79.006-45.535-104.119-60.355
		c-34.049-20.176-59.162-46.441-89.217-93.621c-23.672-36.148-63.855-87.941-89.463-116.348
		c-24.66-28.242-55.086-70.156-65.502-93.703c-10.375-23.387-26.309-77.074-35.818-119.891
		c-9.428-46.934-31.371-101.277-55.25-140.473c-20.709-35.406-45.699-66.777-53.316-68.754c-8.729-2.305-28.367-2.305-44.629,0.824
		c-25.979,4.445-30.59,2.223-43.887-26.105c-8.852-17.785-17.539-63.566-20.051-101.195c-3.664-61.098-10.045-76.082-43.805-117.008
		c-29.768-36.723-42.982-64.965-53.521-119.477c-9.471-51.051-22.48-80.281-42.076-99.879c-15.645-15.312-41.5-51.133-57.887-79.129
		c-16.469-28.078-40.594-86.129-52.203-128.369c-16.633-59.203-29.025-83-49.158-96.668c-15.893-10.211-39.854-21.656-55.375-25.855
		c-17.373-4.611-36.105-0.164-52.902,13.176c-23.303,17.537-30.797,34.17-51.957,115.605
		c-13.504,51.135-28.902,129.934-33.967,172.998c-5.969,42.816-8.77,101.113-7.863,129.109
		c0.906,28.328-5.641,77.238-14.039,108.938c-9.84,37.961-27.914,75.508-56.732,114.535c-22.932,32.195-55.252,65.215-72.09,74.109
		c-22.727,11.609-32.195,12.27-45.658,0.492c-8.152-8.398-20.008-34.254-25.32-57.227c-4.363-22.809-14.82-46.355-22.479-52.449
		c-7.986-5.105-32.4-14.742-54.592-20.422c-24.125-6.34-61.098-27.418-91.686-52.863c-27.791-23.879-54.717-51.543-59.162-62.004
		c-5.436-10.785-26.803-35.98-47.223-56.812c-21.367-21.246-52.205-65.297-69.496-97.738
		c-16.18-33.184-55.127-85.801-84.811-118.408c-37.59-41.992-59.615-76.494-73.201-119.393
		c-11.076-32.771-31.207-74.271-45.164-92.305c-13.998-17.127-37.219-51.217-51.545-75.59
		c-14.533-23.467-35.572-53.768-47.141-65.049c-11.199-12.186-24.291-41.418-28.572-64.225
		c-4.365-22.809-21.367-68.674-37.465-101.773c-15.852-34.172-41.418-70.896-57.104-82.178
		c-14.615-11.115-43.682-38.205-63.896-60.107c-19.887-22.891-50.434-63.979-68.838-92.469
		c-18.65-27.668-60.273-81.766-92.797-119.23c-46.318-52.533-65.832-84.482-84.359-139.814
		c-12.475-39.605-24.043-89.998-24.826-111.078c-1.811-32.441-8.521-42.488-35.488-57.803
		c-17.826-10.869-49.939-26.432-69.496-34.666c-26.76-12.186-44.053-29.23-60.932-63.484c-16.18-29.066-41.088-56.404-69.248-75.014
		c-23.879-15.561-61.303-50.145-83.123-77.564c-20.832-27.172-49.857-54.262-63.402-61.92c-21.861-11.033-28.49-9.717-48.828,13.01
		c-15.027,17.785-24.662,39.029-27.379,60.932c-2.965,31.373-7.986,38.371-47.387,59.039l-44.424,23.549l-19.102,84.977
		c-11.404,47.428-29.355,155.541-41.131,240.188c-10.91,85.059-34.377,218.533-50.721,296.922
		c-17.375,78.223-34.707,176.045-40.225,216.969c-4.568,41.088-6.586,120.217-3.293,174.809
		c2.471,57.475-1.729,141.215-10.621,198.854c-8.152,54.674-16.717,154.801-17.951,222.648c-1.111,67.934-1.564,168.059-2.1,221.582
		c0.33,53.848-6.217,126.637-13.381,161.961c-11.486,47.676-24.084,76.414-52.904,115.277
		c-20.008,29.066-45.533,63.57-54.262,76.742c-9.551,13.176-31.949,27.914-48.498,31.867c-17.58,3.789-51.793,4.035-75.713,0.824
		c-24.25-2.141-59.82-12.434-77.441-20.176c-22.85-11.113-51.629-43.391-92.676-103.914
		c-32.029-47.508-63.979-103.418-70.031-123.758c-5.846-21.16-6.627-85.387-2.469-148.379c5.682-61.508,5.764-128.699,1.523-148.375
		c-4.117-19.68-1.689-72.793,5.598-116.432c9.635-60.604,9.305-94.691-0.781-131.416c-8.111-27.996-16.262-87.939-19.885-133.393
		c-4.199-78.635-1.895-91.48,32.154-198.359c23.342-73.365,37.424-134.957,39.482-170.527
		c0.863-30.795,17.908-127.629,37.176-213.674l34.213-158.178l-24.043-66.283l-23.92-66.285l107.166-406.105
		c87.98-332.656,114.66-422.902,147.844-494.621c21.943-48.004,48.416-102.186,58.338-120.301
		c13.34-23.303,27.543-34.17,48.705-35.818c16.057-2.141,56.197-1.811,88.721,0.33c33.225,3.705,87.693,12.764,121.576,21.574
		c33.844,8.811,74.85,25.854,91.234,38.369c15.439,12.27,33.102,35.49,38.947,52.535c5.188,15.891,20.01,38.369,31.824,48.498
		c11.486,11.445,44.959,29.479,72.996,41.006c28.037,11.363,64.719,33.43,80.199,48.828c15.645,15.48,55.498,76.412,87.652,135.451
		c31.783,60.025,72.625,121.369,90.162,137.426c17.828,14.986,36.643,41.5,41.789,57.393c6.176,15.973,31.494,53.768,56.609,84.07
		c25.154,30.219,70.648,85.551,100.578,121.287c30.672,36.971,81.436,99.961,113.014,141.215
		c31.578,41.252,61.344,89.34,65.338,105.891c2.963,16.467,5.928,52.285,6.092,79.293c-0.492,25.527,4.941,60.191,12.064,76.412
		c7.615,18.609,34.418,41.994,74.766,65.955c62.373,38.289,63.072,39.441,72.172,95.434c4.568,30.219,13.668,62.496,19.885,70.484
		c5.27,7.492,22.355,21.162,36.807,29.312c15.645,7.082,34.707,25.361,43.393,39.029c8.893,13.67,18.197,49.24,19.803,78.719
		c1.648,29.312,6.793,64.803,10.334,79.047c5.641,18.033,17.662,27.338,41.871,33.842c17.373,4.447,37.836,16.963,44.34,27.996
		c5.477,10.787,13.463,35.572,15.645,54.758c3.129,19.35,13.299,43.723,23.426,52.615c9.141,8.729,34.254,19.35,54.141,22.396
		l36.518,6.422l12.969-53.439c6.875-30.219,9.963-89.422,6.588-135.779c-5.354-70.566-1.07-106.549,29.354-250.729
		c19.186-93.127,45-191.689,56.363-219.768c12.516-27.748,26.842-59.119,34.541-68.672c6.588-9.469,25.938-28.078,43.105-42.406
		c21.039-17.209,42.406-23.961,67.891-22.479c21.367,1.4,62.373,14.328,93.58,29.643c30.178,15.068,60.686,36.643,67.355,46.523
		c6.711,10.127,12.309,32.113,11.238,48.416c-0.246,16.469,9.305,51.051,21.121,76.66c12.846,26.348,23.467,56.896,23.549,68.424
		c1.07,11.529,10.664,26.35,23.51,32.855c11.773,6.422,41.746,14.08,65.707,17.291c23.344,1.895,60.973,11.775,82.258,21.572
		c37.26,15.975,40.059,20.668,54.592,91.729c8.77,41.746,23.385,80.447,30.756,87.611c8.48,7.41,29.93,20.174,47.264,28.982
		c17.58,7.74,43.6,26.844,57.555,40.76c13.67,14.904,33.061,55.25,42.201,91.645c9.264,35.572,32.236,90.164,50.104,120.631
		c17.621,31.535,50.146,88.598,70.938,128.039c20.584,39.688,53.191,104.984,70.689,144.674
		c18.238,41.006,46.852,89.75,64.514,108.855c17.785,19.102,36.477,42.652,40.018,52.859c4.529,10.461,15.934,45.453,25.072,77.895
		c15.398,55.582,17.828,58.301,59.41,69.25c42.529,11.117,42.529,11.117,52.41,68.426c7.039,44.219,17.662,66.531,49.115,100.785
		c21.533,24.289,47.059,45.203,54.799,47.43c8.727,2.141,18.896-1.32,23.672-7.328c4.57-6.012,22.686-43.559,39.111-82.754
		c27.42-61.098,33.184-87.445,42.695-174.891c5.352-56.57,16.385-153.812,23.344-216.146
		c13.092-109.266,14.615-115.113,45.615-158.67c17.951-25.279,52.41-69.908,77.979-100.539
		c24.619-30.713,62.826-70.484,84.357-89.586c21.615-19.186,66.531-44.547,99.633-56.65c33.1-11.939,67.438-24.785,75.754-28.738
		c9.221-3.787,21.285,1.646,35.693,13.586c12.27,12.434,36.643,21.904,60.934,24.045c22.025,2.799,70.482-1.236,107.701-8.977
		c37.219-7.904,72.666-13.174,77.523-11.773c4.9,1.234,22.355,21.326,37.918,44.957c16.881,26.186,41.83,49.322,63.156,58.957
		c19.227,9.221,74.559,50.557,122.852,91.15c48.088,41.5,115.525,107.619,149.654,147.555
		c33.967,39.936,83.824,86.129,109.432,103.092c26.719,16.221,75.301,59.945,107.125,96.09
		c33.102,35.492,71.35,82.918,86.418,104.41c15.068,21.242,44.299,55.828,64.02,75.59c21.367,20.996,44.875,61.262,57.062,97.656
		c12.803,34.336,38.822,92.797,59.82,131.332c37.053,67.52,38.783,69.086,91.934,82.836c43.559,11.527,57.762,20.336,77.564,47.344
		c12.682,18.691,38.248,51.383,56.773,71.637c24.004,26.926,37.219,35.574,47.883,30.055c8.316-4.035,20.502-26.676,27.008-51.875
		c6.34-24.125,7.121-66.285,2.717-93.207c-6.012-28.574-3.252-78.391,3.953-117.832c11.156-62.332,17.496-75.094,50.721-110.832
		c20.627-23.711,50.557-55.086,65.996-70.648c15.439-15.645,32.154-44.215,37.012-62.742c5.023-19.266,25.361-53.355,45.947-76.824
		c19.432-22.891,55.375-53.852,79.047-69.25c39.854-25.77,45.246-26.512,104.162-11.113c40.676,10.621,70.029,13.258,88.227,6.668
		c20.75-8.07,38.619-5.434,77.072,9.633c35.777,13.504,62.373,18.527,89.299,14.246c21.367-2.715,58.049-0.41,82.176,5.93
		c25.154,6.586,57.762,24.453,82.012,46.273c21.861,19.023,58.008,43.148,81.105,53.277c23.221,10.293,55.91,35.16,73.488,55.332
		c17.662,19.102,48.418,47.676,67.396,62.004c20.051,14.656,61.92,40.098,92.469,57.309c31.619,17.539,72.049,48.746,90.246,70.152
		c18.238,21.246,38.947,56.652,47.758,78.391c7.492,22.973,26.143,50.473,39.564,62.25c14.369,12.102,57.104,34.5,94.939,51.793
		c38.205,15.973,77.977,37.793,87.609,48.496c8.605,10.539,22.273,45.207,27.543,76.578c5.971,32.523,17.457,67.602,24.867,78.801
		c7.412,11.199,35.449,38.207,61.922,59.695c26.389,21.41,75.547,50.641,108.277,64.391c33.514,13.918,68.014,32.195,77.154,40.926
		c9.057,8.562,22.438,28.406,29.559,44.957c7.041,16.137,46.152,60.602,86.705,99.055c39.648,38.371,96.133,83.082,123.883,99.551
		c28.654,16.961,63.279,46.523,75.672,66.367c13.379,20.008,39.77,49.488,59.201,66.121c25.98,23.301,37.59,45.945,50.146,96.832
		c8.111,36.23,22.727,71.059,32.648,76.824c9.676,6.504,26.061,10.867,36.725,9.551c13.338,0.41,26.102,11.035,39.934,33.184
		c10.375,19.266,22.934,54.59,27.791,79.539c7.369,39.195,13.998,49.324,41.746,61.676c19.352,9.223,40.059,24.785,48.375,36.395
		c7.453,11.199,16.551,35.406,18.816,54.508c3.17,19.352,2.676,45.207-0.865,58.629c-3.293,12.598-0.781,26.676,6.176,31.699
		c6.053,4.613,23.467,4.941,36.436-0.824c13.627-4.691,31.742-18.523,41.129-30.547c10.129-15.066,16.551-55.664,20.873-143.52
		c4.076-67.109,13.875-163.859,23.879-213.922c13.629-71.719,23.139-100.375,45.824-135.699
		c15.604-23.879,44.752-52.531,64.266-63.895c31.537-17.539,39.73-17.375,80.035-1.812c32.855,12.762,67.273,15.48,127.918,12.848
		c64.801-2.965,87.156-1.238,102.268,12.184c11.279,8.234,23.836,35.324,28.982,59.285c5.971,24.293,14.205,48.172,19.021,53.688
		c5.023,4.363,26.803,7.906,48.91,6.34c37.877-2.469,40.553-0.742,75.877,45.781c28.078,35.242,45.412,47.922,63.525,49.734
		c14.328,0.578,36.848,1.316,50.436,0.742c19.967-1.152,22.355,1.562,16.508,23.879c-3.787,14.574-2.059,39.77,2.801,56.484
		c4.898,16.879,15.562,43.395,23.096,57.887c8.398,15.645,37.096,47.922,65.008,71.801c27.914,23.715,61.469,57.391,75.59,74.438
		c13.463,16.055,43.764,38.371,66.201,47.344c22.232,9.883,63.691,33.184,90.699,52.617c40.059,28.16,64.35,58.133,115.277,143.848
		c54.592,91.73,72.541,113.961,111.406,135.535c25.031,14.82,56.65,32.441,70.443,39.109c12.721,6.426,40.553,34.418,61.385,61.512
		c20.504,28.078,44.918,57.309,55.045,66.117c9.799,9.801,33.678,21.246,53.027,26.27c24.25,6.34,43.682,3.129,64.391-8.977
		c16.797-9.059,33.102-27.504,36.436-40.102c3.129-12.598,23.303-53.852,43.312-91.066c21.326-37.797,49.939-99.551,62.867-137.594
		c14.244-38.617,44.381-106.219,66.695-152c21.984-45.039,52.205-96.914,65.873-113.961c14.08-18.195,34.418-32.441,46.027-33.594
		c14.576-0.328,30.797,16.387,61.346,65.707c22.396,36.891,65.955,95.762,95.844,131.5c29.725,36.723,74.271,95.926,98.809,132.238
		c25.525,36.723,48.418,75.754,52.945,86.293c3.459,10.129,6.012,43.887,4.529,73.531c-1.4,29.559-7.904,73.281-14.244,97.656
		c-6.176,24.125-11.611,64.059-11.939,89.75c0.246,34.172-7.33,63.238-29.809,113.219c-15.727,37.137-51.709,127.012-79.459,201.449
		c-29.479,77.027-60.686,145.371-72.707,159.781c-13.01,14.16-44.463,39.027-69.248,55.25
		c-25.113,17.211-61.262,32.605-80.611,35.777c-19.268,2.184-47.758,0.863-63.32-3.129c-16.469-4.324-46.605-23.508-69.166-43.887
		c-34.172-31.66-50.764-39.113-114.865-54.84c-64.35-14.781-78.389-20.504-92.182-42.695c-9.717-13.996-43.805-53.809-75.959-89.09
		c-32.359-34.336-72.748-73.777-91.027-86.871c-17.127-13.711-44.877-45.781-60.809-71.719
		c-16.098-24.949-51.465-68.18-77.648-94.773c-26.02-26.434-63.402-73.367-81.311-103.832
		c-17.705-30.551-44.629-66.449-58.752-79.543c-14.121-12.926-55.127-38.125-90.656-56.73
		c-35.365-18.609-66.984-40.266-70.195-47.266c-3.129-8.07-5.641-26.266-5.723-41.828c0.947-15.316-7.494-42.324-18.691-58.629
		c-10.951-17.371-30.879-40.18-44.836-50.062c-20.666-15.645-28.695-16.715-57.721-4.691c-18.238,6.586-41.088,10.949-50.721,8.48
		c-9.717-2.637-43.682-22.891-76.248-44.711c-49.775-34.75-59.203-38.289-67.355-27.008c-4.939,7-15.15,34.418-22.025,60.438
		c-7.041,27.09-9.387,63.648-5.229,83.328c4.199,19.762,19.885,66.203,33.842,103.996c13.875,37.633,38.947,139.402,55.539,226.438
		c15.562,86.664,35.283,169.375,41.869,183.539c7.658,14.328,27.133,34.996,42.982,45.371c19.227,13.297,34.748,36.93,45.988,72.953
		c9.881,29.52,15.645,62.988,12.598,74.641c-2.799,10.621-19.35,38.332-36.807,61.676c-18.197,22.105-40.758,45.164-51.258,49.691
		c-10.209,3.5-21.408,6.793-24.33,6.012C18768.67,8503.176,18747.467,8485.266,18724.865,8464.844z"/>
	<path fill="#080808" d="M38722.125,13497.602c-4.199-3.254-20.668-11.652-34.09-19.27c-14.738-7-42.156-36.805-60.273-66.406
		c-19.102-29.809-51.133-69.25-72.211-87.078c-21.164-17.988-48.172-45.699-61.262-62.535
		c-12.352-15.688-39.277-43.355-58.711-59.863c-18.359-17.168-41.086-44.793-47.84-62.086
		c-10.539-23.383-10.047-44.914,1.648-89.461c15.148-58.051,16.715-59.738,75.754-91.852c33.594-18.117,74.434-32.195,90.902-32.031
		c19.434,0.906,39.938,9.387,56.734,24.168c14.242,12.969,47.758,31.043,74.848,42.238c26.266,9.965,67.355,31.043,91.398,45.617
		c23.797,15.562,69,56.281,100.125,91.359c31.207,34.953,78.637,79.418,104.492,98.52c27.008,19.516,68.508,58.297,94.195,86.703
		c25.609,28.41,53.359,68.758,61.262,89.426c8.812,21.902,12.848,49.855,9.555,62.414c-3.215,12.598-27.504,38.328-53.195,57.391
		c-26.926,19.887-63.566,37.176-82.914,40.348c-23.633,3.168-74.852-6.176-157.848-28.863
		C38787.008,13518.637,38727.395,13501.102,38722.125,13497.602z"/>
	<path fill="#080808" d="M4392.535,3073.289c-9.84-5.6-29.52-25.361-44.3-43.723c-14.862-18.115-39.646-42.24-56.444-52.781
		c-16.88-10.621-47.099-21.736-67.231-23.879c-20.297-1.07-61.961-12.021-90.904-23.713c-30.96-12.27-62.743-32.938-77.854-50.311
		c-13.38-15.893-27.872-47.594-33.183-70.73c-5.312-23.139-14.78-89.834-22.438-147.473c-8.233-59.039-10.786-140.309-6.258-181.396
		c4.529-41.254,34.419-179.174,64.926-307.709c33.39-135.861,55.457-248.092,55.004-269.83
		c-1.977-20.174-7.411-50.557-13.586-66.779c-5.847-16.879-13.34-43.559-15.068-60.686c-1.812-16.879,5.188-79.129,15.768-139.402
		c12.393-75.506,32.401-147.719,63.855-236.564c38.618-107.867,50.229-156.365,76.083-310.838
		c17.127-101.113,30.837-204.781,31.619-231.625c0.988-43.229,5.476-56.484,50.599-126.311
		c26.72-42.652,64.349-95.844,83.246-116.594c19.145-21.902,50.517-46.852,70.73-57.145c31.702-14.328,46.235-14.822,96.545-1.73
		c32.896,8.646,82.382,13.422,110.707,11.363c48.582-3.623,51.422-2.881,105.479,31.867c29.807,20.09,79.87,53.932,111.489,75.588
		c31.536,21.656,76.165,64.555,99.344,94.281c23.221,29.889,69.414,86.375,101.567,125.816
		c32.072,39.441,67.355,93.951,77.442,122.605c17.209,44.711,26.102,54.262,72.418,78.801c49.61,27.584,54.428,32.936,65.791,80.281
		c6.011,28.408,20.708,59.121,32.071,67.355c11.034,8.975,35.9,20.584,56.239,25.938c36.806,9.715,38.206,12.021,75.548,122.193
		c21.12,61.262,48.128,124.17,59.655,139.568c11.487,15.479,31.66,33.018,44.423,39.605c12.763,6.34,44.135,24.867,67.973,40.264
		c33.06,20.01,56.033,46.77,87.158,101.527c34.089,59.533,48.951,101.609,71.06,210.711c14.492,75.176,27.749,146.73,27.42,160.234
		c0.782,12.516,7.945,24.785,14.697,26.432c7.781,2.223,26.432,1.895,43.477,0.246c15.974-2.141,42.611,2.635,58.997,11.117
		c22.232,10.127,46.852,42.322,85.84,110.418c39.359,67.025,66.326,102.104,91.439,116.842
		c19.557,12.434,60.397,49.98,90.781,83.658c30.261,34.748,62.949,83.742,71.884,108.773c10.128,28.406,12.681,58.049,8.069,79.541
		c-4.817,18.361-13.916,37.795-19.351,42.652c-5.352,4.775-34.624,17.785-65.131,27.42c-31.372,9.223-68.714,14.08-85.224,9.715
		c-16.427-4.281-40.223-19.844-53.851-34.912c-12.804-14.574-48.622-55.004-79.623-90.822
		c-30.137-34.83-60.479-80.939-66.326-102.266c-6.093-20.256-23.385-56.734-38.659-81.436
		c-15.232-24.621-49.075-81.023-76.823-125.488c-35.16-58.791-63.691-92.057-98.645-116.676
		c-26.885-19.434-53.604-35.902-58.462-37.137c-5.806-1.564-21.82-23.137-36.807-48.746c-14.327-24.455-44.67-70.648-65.667-100.949
		c-22.19-29.561-44.917-69.66-49.239-88.352c-5.682-18.033-24.25-45.699-40.883-61.426c-17.744-14.822-35.777-28.82-41.582-30.385
		c-5.805-1.482-29.066-27.254-51.257-56.814c-23.015-30.797-51.052-65.955-62.003-79.295
		c-11.281-12.352-23.344-45.369-27.872-71.307c-7.493-46.523-9.964-49.24-47.635-59.121c-30.96-8.152-44.958-17.785-58.956-43.229
		c-10.457-19.268-36.188-67.355-57.515-108.031c-20.38-40.43-48.869-82.094-61.838-91.646
		c-13.257-8.645-28.037-15.562-33.555-13.998c-5.599,1.564-19.35-5.104-30.425-13.998c-12.021-9.469-24.661-32.277-27.831-51.873
		c-4.364-18.691-8.934-48.912-10.21-67.85c-2.265-19.021-11.733-38.123-22.521-44.053c-10.828-5.846-28.531-13.586-40.1-16.715
		c-10.663-2.799-29.148,0.658-40.348,8.152c-12.269,7.162-25.36,29.561-30.631,49.816c-5.104,19.514-36.724,77.234-69.824,128.533
		c-44.835,69.002-64.432,108.195-77.318,157.684c-9.387,35.57-17.539,90.41-17.333,121.369c-0.37,37.219,7.123,63.979,20.256,80.859
		c10.993,13.174,18.362,32.607,15.81,42.406c-2.306,8.727-11.61,20.748-20.914,24.537c-9.47,4.611-22.809,19.844-30.426,33.348
		c-6.999,14.82-16.962,69.002-21.202,120.629c-4.364,52.451-6.094,137.756-3.006,189.303c1.936,52.203,2.306,129.768,0.329,172.586
		c-1.935,43.064-8.563,96.174-13.874,116.348c-6.34,24.207-4.405,52.615,4.981,79.953c8.522,22.809,14.945,77.152,15.687,121.781
		c-0.33,56.816-12.146,137.428-40.348,276.83c-22.231,108.938-48.622,213.674-56.526,232.201
		c-9.223,19.434-32.278,44.217-51.752,55.828c-19.35,10.539-42.652,16.715-52.368,14.244
		C4418.389,3085.146,4402.704,3078.064,4392.535,3073.289z"/>
	<path fill="#080808" d="M36273.637,7578.816c-5.105-19.926-1.562-25.277,19.68-35.242c12.762-5.93,32.691-7,41.5-1.562
		c10.047,5.762,18.363,17.207,19.188,25.688c0.984,8.562-4.777,22.48-12.352,32.031c-8.566,9.059-25.199,12.93-38.785,9.387
		C36288.375,7605.328,36277.012,7593.145,36273.637,7578.816z"/>
</g>
</svg>
